<svg width="36" height="37" viewBox="0 0 36 37" fill="none" xmlns="http://www.w3.org/2000/svg">
<path d="M30.269 19.9799L18.936 19.2217L29.3156 23.3685C29.7881 22.3095 30.1144 21.1715 30.269 19.9799Z" fill="white"/>
<path d="M27.9418 25.7087C25.6962 28.7141 22.102 30.661 18.0511 30.661C11.2467 30.661 5.73071 25.1679 5.73071 18.3918C5.73071 11.6157 11.2467 6.12256 18.0511 6.12256C22.1095 6.12256 25.7096 8.07673 27.9544 11.0917L17.6617 16.5782L24.2851 9.80333H20.6137L16.1044 16.0363V9.80333H13.1229V26.9802H16.1044V20.7573L20.6137 26.9802H24.2851L17.8337 20.4184L27.9418 25.7087Z" fill="white"/>
<path d="M29.3157 13.415L19.0085 17.5324L30.2691 16.8034C30.1144 15.6119 29.7881 14.474 29.3157 13.415Z" fill="white"/>
</svg>
