<svg width="24" height="24" viewBox="0 0 24 24" fill="none" xmlns="http://www.w3.org/2000/svg">
<path d="M22.9999 13.4238L12.8392 12.744L22.1451 16.4619C22.5687 15.5124 22.8612 14.4921 22.9999 13.4238Z" fill="#010101"/>
<path d="M20.9134 18.56C18.9001 21.2545 15.6777 23 12.0458 23C5.94539 23 1 18.0752 1 12C1 5.92487 5.94539 1 12.0458 1C15.6844 1 18.9121 2.75201 20.9247 5.45513L11.6968 10.374L17.635 4.3H14.3434L10.3006 9.88822V4.3H7.62751V19.7H10.3006V14.1208L14.3434 19.7H17.635L11.851 13.817L20.9134 18.56Z" fill="#010101"/>
<path d="M22.1451 7.53808L12.9042 11.2295L22.9998 10.5759C22.8612 9.50767 22.5686 8.48746 22.1451 7.53808Z" fill="#010101"/>
</svg>
