<svg width="41" height="41" viewBox="0 0 41 41" fill="none" xmlns="http://www.w3.org/2000/svg">
<path d="M40.1225 23.1598L21.6487 21.9238L38.5684 28.6836C39.3385 26.9573 39.8704 25.1022 40.1225 23.1598Z" fill="white"/>
<path d="M36.3289 32.4985C32.6684 37.3977 26.8095 40.5713 20.2061 40.5713C9.11443 40.5713 0.122803 31.617 0.122803 20.5713C0.122803 9.5256 9.11443 0.571289 20.2061 0.571289C26.8217 0.571289 32.6903 3.75677 36.3495 8.67153L19.5715 17.6149L30.3683 6.57129H24.3835L17.0329 16.7317V6.57129H12.1728V34.5713H17.0329V24.4273L24.3835 34.5713H30.3683L19.8519 23.8749L36.3289 32.4985Z" fill="white"/>
<path d="M38.5684 12.459L21.7668 19.1707L40.1226 17.9823C39.8704 16.0401 39.3386 14.1851 38.5684 12.459Z" fill="white"/>
</svg>
