<svg width="29" height="28" viewBox="0 0 29 28" fill="none" xmlns="http://www.w3.org/2000/svg">
<path d="M14.8211 25.7174C7.74488 25.7174 1.98779 19.9604 1.98779 12.8841C1.98779 5.80787 7.74488 0.0507812 14.8211 0.0507812C21.8974 0.0507812 27.6545 5.80787 27.6545 12.8841C27.6545 19.9604 21.8974 25.7174 14.8211 25.7174ZM14.8211 1.65495C8.62931 1.65495 3.59196 6.6923 3.59196 12.8841C3.59196 19.0759 8.62931 24.1133 14.8211 24.1133C21.0129 24.1133 26.0503 19.0759 26.0503 12.8841C26.0503 6.6923 21.0129 1.65495 14.8211 1.65495ZM13.784 16.6595L20.2007 10.2429C20.514 9.92951 20.514 9.42206 20.2007 9.10871C19.8874 8.79536 19.3799 8.79536 19.0666 9.10871L13.217 14.9583L10.5757 12.317C10.2624 12.0037 9.7549 12.0037 9.44155 12.317C9.12821 12.6304 9.12821 13.1378 9.44155 13.4512L12.6499 16.6595C12.8066 16.8162 13.0116 16.8945 13.217 16.8945C13.4223 16.8945 13.6274 16.8162 13.784 16.6595Z" fill="#1BDB65"/>
</svg>
