<svg width="29" height="29" viewBox="0 0 29 29" fill="none" xmlns="http://www.w3.org/2000/svg">
<g clip-path="url(#clip0_2123_5349)">
<path d="M15.1035 28.4927L14.75 28.4966C14.9466 28.4966 15.1425 28.4909 15.3379 28.4829C15.2598 28.4861 15.1818 28.4908 15.1035 28.4927ZM14.75 0.751465C16.6054 0.751471 18.406 1.11432 20.1016 1.83154C21.7383 2.52388 23.2078 3.51499 24.4697 4.77686C25.7317 6.03889 26.7227 7.50834 27.415 9.14502C28.1323 10.8407 28.4951 12.6414 28.4951 14.4966C28.4951 16.3518 28.1323 18.1524 27.415 19.8481C26.7227 21.4848 25.7317 22.9542 24.4697 24.2163C23.2079 25.4781 21.7384 26.4691 20.1016 27.1616C18.406 27.8787 16.6053 28.2417 14.75 28.2417C12.8946 28.2417 11.0941 27.8788 9.39844 27.1616C7.76155 26.4692 6.29212 25.4782 5.03027 24.2163C3.76836 22.9543 2.77731 21.4849 2.08496 19.8481C1.36773 18.1525 1.00488 16.3518 1.00488 14.4966C1.00489 12.6414 1.36777 10.8408 2.08496 9.14502C2.77731 7.50824 3.76838 6.0388 5.03027 4.77686C6.29217 3.51492 7.76164 2.52389 9.39844 1.83154C11.0942 1.11435 12.8948 0.751465 14.75 0.751465ZM9.625 27.5288C9.79731 27.5967 9.97121 27.6594 10.1455 27.7202C10.0811 27.6978 10.0163 27.6763 9.95215 27.6528L9.625 27.5288ZM8.7207 27.1353L9.2998 27.396C8.92194 27.2362 8.55323 27.0594 8.19336 26.8687C8.36718 26.9608 8.54263 27.0503 8.7207 27.1353ZM14.75 2.33057C11.5007 2.33057 8.44512 3.59645 6.14746 5.89404C3.84987 8.19169 2.584 11.2473 2.58398 14.4966C2.58398 17.7459 3.84987 20.8016 6.14746 23.0991C8.44507 25.3967 11.5007 26.6626 14.75 26.6626C17.9993 26.6626 21.0549 25.3967 23.3525 23.0991C25.6501 20.8016 26.916 17.7458 26.916 14.4966C26.916 11.2473 25.6501 8.19164 23.3525 5.89404C21.0549 3.5964 17.9993 2.33057 14.75 2.33057ZM14.1426 26.3931C13.9532 26.3836 13.7648 26.3693 13.5771 26.3511C13.7648 26.3693 13.9532 26.3836 14.1426 26.3931ZM13.4482 26.3354C13.3022 26.3197 13.1566 26.3028 13.0117 26.2817C13.1566 26.3028 13.3022 26.3197 13.4482 26.3354ZM12.8535 26.2554C12.7153 26.2334 12.5774 26.2109 12.4404 26.1841C12.5774 26.2108 12.7153 26.2334 12.8535 26.2554ZM12.293 26.1528C12.1586 26.1248 12.0246 26.0966 11.8916 26.064C12.0246 26.0966 12.1586 26.1248 12.293 26.1528ZM11.6768 26.0073C11.5744 25.9802 11.4725 25.9522 11.3711 25.9224C11.4725 25.9522 11.5744 25.9802 11.6768 26.0073ZM11.1201 25.8452C11.0221 25.814 10.9243 25.7823 10.8271 25.7485C10.9243 25.7823 11.0221 25.814 11.1201 25.8452ZM10.583 25.6597C10.4851 25.6232 10.3878 25.5855 10.291 25.5464C10.3879 25.5854 10.4851 25.6232 10.583 25.6597ZM10.0869 25.4624C9.97936 25.4166 9.87278 25.3688 9.7666 25.3198C9.87278 25.3688 9.97935 25.4167 10.0869 25.4624ZM9.5625 25.2241C9.46478 25.1768 9.36793 25.1277 9.27148 25.0776C9.36793 25.1277 9.46478 25.1768 9.5625 25.2241ZM5.09375 24.6343C5.22945 24.7637 5.36864 24.8888 5.50879 25.0122C5.4531 24.9632 5.39679 24.9147 5.3418 24.8647L5.09375 24.6343ZM9.04492 24.9575C8.95991 24.911 8.87593 24.8626 8.79199 24.814C8.87593 24.8626 8.9599 24.911 9.04492 24.9575ZM8.55957 24.6772C8.4713 24.6233 8.38482 24.5665 8.29785 24.5103C8.38483 24.5665 8.4713 24.6234 8.55957 24.6772ZM8.0791 24.3667C7.99414 24.309 7.91077 24.249 7.82715 24.189C7.91077 24.249 7.99413 24.309 8.0791 24.3667ZM7.63086 24.0483C7.53388 23.9757 7.43877 23.9005 7.34375 23.8247C7.43878 23.9005 7.53387 23.9757 7.63086 24.0483ZM7.17676 23.6919C7.0853 23.6163 6.99673 23.537 6.90723 23.4585C6.99673 23.537 7.0853 23.6163 7.17676 23.6919ZM5.7334 22.2769C5.67365 22.2078 5.6127 22.14 5.55469 22.0698C5.6127 22.14 5.67365 22.2078 5.7334 22.2769ZM23.9443 22.0698C23.8863 22.14 23.8254 22.2078 23.7656 22.2769C23.8254 22.2078 23.8863 22.14 23.9443 22.0698ZM5.41797 21.897C5.34345 21.8034 5.26873 21.7102 5.19727 21.6147C5.26873 21.7102 5.34345 21.8034 5.41797 21.897ZM24.3018 21.6147C24.2304 21.7101 24.1564 21.8035 24.082 21.897C24.1564 21.8035 24.2304 21.7101 24.3018 21.6147ZM2.26758 20.8433C2.44985 21.2017 2.64753 21.5509 2.85938 21.8911C2.64754 21.5509 2.44985 21.2017 2.26758 20.8433ZM27.2314 20.8433C27.0492 21.2016 26.8524 21.551 26.6406 21.8911C26.8524 21.5511 27.0492 21.2016 27.2314 20.8433ZM5.05664 21.4185C4.99612 21.3341 4.93512 21.2503 4.87695 21.1646C4.93511 21.2503 4.99613 21.3341 5.05664 21.4185ZM24.623 21.1646C24.5648 21.2504 24.503 21.3339 24.4424 21.4185C24.503 21.3339 24.5648 21.2504 24.623 21.1646ZM4.73535 20.9478C4.67828 20.8596 4.62101 20.7717 4.56641 20.6821C4.62101 20.7717 4.67829 20.8596 4.73535 20.9478ZM24.9326 20.6821C24.878 20.7717 24.8207 20.8596 24.7637 20.9478C24.8207 20.8596 24.878 20.7717 24.9326 20.6821ZM4.43164 20.4536C4.38395 20.3713 4.33666 20.2889 4.29102 20.2056C4.33665 20.2889 4.38395 20.3713 4.43164 20.4536ZM25.208 20.2056C25.1624 20.2889 25.1151 20.3713 25.0674 20.4536C25.1151 20.3713 25.1624 20.2889 25.208 20.2056ZM18.9189 19.9683C18.9615 19.9811 19.005 19.9894 19.0488 19.9966C19.0385 19.9949 19.0279 19.9947 19.0176 19.9927L18.9189 19.9683ZM19.5254 19.9673H19.5264H19.5254ZM4.14746 19.9331C4.10876 19.8578 4.07025 19.7826 4.0332 19.7065C4.07024 19.7826 4.10877 19.8578 4.14746 19.9331ZM25.4658 19.7065C25.4288 19.7824 25.3912 19.858 25.3525 19.9331C25.3912 19.858 25.4288 19.7824 25.4658 19.7065ZM20.0674 19.5796C20.0351 19.6242 19.9996 19.6669 19.96 19.7065C19.9996 19.6669 20.035 19.6241 20.0674 19.5796ZM9.60742 19.7681C9.62473 19.7826 9.64305 19.7957 9.66113 19.8091C9.64654 19.7983 9.63128 19.7884 9.61719 19.7769L9.60742 19.7681ZM10.2783 9.23584C10.4897 9.23588 10.6877 9.31721 10.8369 9.46631L14.5703 13.1997L14.75 13.3804L14.9297 13.1997L18.6631 9.46631H18.6641C18.737 9.39303 18.8235 9.33399 18.9189 9.29443C19.014 9.25507 19.1169 9.23562 19.2207 9.23584H19.2217C19.4333 9.23587 19.6311 9.31716 19.7803 9.46631C19.9294 9.61541 20.0107 9.81328 20.0107 10.0249C20.0107 10.2363 19.9294 10.4343 19.7803 10.5835L16.0469 14.3169L15.8662 14.4966L16.0469 14.6763L19.7803 18.4097V18.4106C19.8535 18.4835 19.9126 18.5701 19.9521 18.6655C19.9915 18.7606 20.011 18.8636 20.0107 18.9673V18.9683C20.0107 19.1799 19.9294 19.3778 19.7803 19.5269C19.6309 19.676 19.4331 19.7573 19.2217 19.7573H19.2207C19.117 19.7576 19.014 19.7381 18.9189 19.6987C18.8235 19.6591 18.7369 19.6001 18.6641 19.5269H18.6631L14.9297 15.7935L14.75 15.6128L14.5703 15.7935L10.8369 19.5269C10.6877 19.676 10.4897 19.7573 10.2783 19.7573C10.0667 19.7573 9.86878 19.676 9.71973 19.5269V19.5259L9.66699 19.4692C9.61791 19.4096 9.57758 19.3427 9.54785 19.271C9.50855 19.1761 9.48903 19.0731 9.48926 18.9692V18.9683C9.48932 18.757 9.57059 18.559 9.71973 18.4097L13.4531 14.6763L13.6338 14.4966L13.4531 14.3169L9.71973 10.5835C9.41232 10.2758 9.41234 9.77381 9.71973 9.46631H9.7207C9.7935 9.39312 9.87997 9.33408 9.97559 9.29443C10.0705 9.25513 10.1735 9.23561 10.2773 9.23584H10.2783ZM9.35742 19.4614C9.37875 19.5012 9.40339 19.5391 9.42969 19.5757C9.42315 19.5666 9.41639 19.5577 9.41016 19.5483L9.35742 19.4614ZM3.91699 19.4604C3.87291 19.3644 3.83053 19.2676 3.78906 19.1704C3.83052 19.2676 3.87291 19.3644 3.91699 19.4604ZM25.71 19.1704C25.6685 19.2675 25.627 19.3645 25.583 19.4604C25.627 19.3645 25.6685 19.2675 25.71 19.1704ZM9.25391 19.1724C9.26054 19.206 9.26938 19.2392 9.2793 19.272L9.31348 19.3687C9.28725 19.3053 9.26705 19.2394 9.25391 19.1724ZM3.69434 18.9438C3.65285 18.8407 3.61374 18.7366 3.5752 18.6323C3.61374 18.7367 3.65286 18.8407 3.69434 18.9438ZM25.9248 18.6323C25.8862 18.7368 25.8462 18.8406 25.8047 18.9438C25.8462 18.8406 25.8862 18.7368 25.9248 18.6323ZM3.49512 18.4106C3.46354 18.3196 3.43365 18.2281 3.4043 18.1362C3.43364 18.2281 3.46355 18.3196 3.49512 18.4106ZM26.0986 18.1255C26.0682 18.2209 26.0377 18.3161 26.0049 18.4106C26.0377 18.3161 26.0683 18.2209 26.0986 18.1255ZM9.41602 18.3794C9.4108 18.387 9.40637 18.3951 9.40137 18.4028C9.40421 18.3984 9.40627 18.3935 9.40918 18.3892L9.41602 18.3794ZM26.2617 17.5669C26.2344 17.6699 26.2058 17.7724 26.1758 17.8745C26.2058 17.7724 26.2344 17.6699 26.2617 17.5669ZM3.32129 17.8687C3.29191 17.7686 3.26502 17.6678 3.23828 17.5669C3.26502 17.6678 3.29192 17.7686 3.32129 17.8687ZM3.18164 17.354C3.14802 17.2168 3.1186 17.0786 3.08984 16.9399C3.11859 17.0786 3.14803 17.2168 3.18164 17.354ZM26.4102 16.9399C26.3814 17.0786 26.351 17.2168 26.3174 17.354C26.351 17.2168 26.3814 17.0786 26.4102 16.9399ZM3.06152 16.8042C3.03584 16.6727 3.01347 16.5404 2.99219 16.4077C3.01346 16.5404 3.03585 16.6727 3.06152 16.8042ZM26.5068 16.4077C26.4856 16.5404 26.4632 16.6727 26.4375 16.8042C26.4632 16.6727 26.4856 16.5404 26.5068 16.4077ZM26.5742 15.9165C26.5623 16.0173 26.5525 16.1181 26.5381 16.2183C26.5525 16.1181 26.5623 16.0173 26.5742 15.9165ZM2.83789 14.4966C2.83789 14.3018 2.84233 14.1078 2.85156 13.9146C2.84233 14.1078 2.83789 14.3018 2.83789 14.4966ZM26.6475 13.937C26.656 14.1228 26.6611 14.3093 26.6611 14.4966C26.6611 14.3093 26.656 14.1228 26.6475 13.937ZM2.86035 13.8032C2.86943 13.6441 2.87925 13.4855 2.89453 13.3276C2.87926 13.4855 2.86942 13.6441 2.86035 13.8032ZM26.6055 13.3521C26.6103 13.4034 26.614 13.4549 26.6182 13.5063C26.614 13.4549 26.6103 13.4034 26.6055 13.3521ZM2.91016 13.1997C2.92616 13.0511 2.9424 12.9028 2.96387 12.7554C2.94242 12.9028 2.92615 13.0511 2.91016 13.1997ZM26.5381 12.7798C26.5529 12.8832 26.564 12.9872 26.5762 13.0913C26.564 12.9872 26.5529 12.8832 26.5381 12.7798ZM18.4834 9.28662L18.5596 9.21729C18.5682 9.21021 18.5771 9.20357 18.5859 9.19678C18.5499 9.22442 18.5155 9.25433 18.4834 9.28662ZM2.98438 12.6333C3.0069 12.4891 3.03087 12.3455 3.05859 12.2026C3.03089 12.3455 3.00689 12.4891 2.98438 12.6333ZM26.4453 12.23C26.4642 12.3286 26.4807 12.4276 26.4971 12.5269C26.4807 12.4276 26.4642 12.3286 26.4453 12.23ZM3.09668 12.021C3.12204 11.9004 3.14771 11.7801 3.17676 11.6606C3.14772 11.7801 3.12203 11.9004 3.09668 12.021ZM26.3281 11.689C26.3489 11.7752 26.3669 11.862 26.3857 11.9487C26.3669 11.862 26.3489 11.7752 26.3281 11.689ZM3.23828 11.4272C3.26587 11.3231 3.29285 11.2189 3.32324 11.1157C3.29286 11.2189 3.26586 11.3231 3.23828 11.4272ZM26.1836 11.146C26.2077 11.2286 26.2297 11.3118 26.252 11.395C26.2297 11.3118 26.2077 11.2286 26.1836 11.146ZM3.39258 10.8911C3.42519 10.788 3.4597 10.6856 3.49512 10.5835C3.45971 10.6856 3.42518 10.788 3.39258 10.8911ZM26.0146 10.6118C26.0414 10.6896 26.0667 10.7678 26.0918 10.8462C26.0667 10.7678 26.0414 10.6896 26.0146 10.6118ZM1.29395 10.6177C1.32245 10.5188 1.35208 10.4201 1.38281 10.3218C1.35208 10.4201 1.32245 10.5188 1.29395 10.6177ZM3.57812 10.3521C3.61878 10.2423 3.66118 10.1333 3.70508 10.0249C3.66119 10.1333 3.61876 10.2423 3.57812 10.3521ZM25.8115 10.0669C25.8454 10.1515 25.8783 10.2364 25.9102 10.3218C25.8783 10.2364 25.8454 10.1515 25.8115 10.0669ZM1.55957 9.79443C1.51997 9.90535 1.48202 10.0167 1.44531 10.1284C1.48202 10.0167 1.51997 9.90535 1.55957 9.79443ZM3.78223 9.83838C3.82692 9.73321 3.87314 9.62875 3.9209 9.5249C3.87316 9.62876 3.82691 9.7332 3.78223 9.83838ZM25.585 9.53857C25.6277 9.63176 25.6688 9.72557 25.709 9.81982C25.6688 9.72557 25.6277 9.63176 25.585 9.53857ZM9.41016 9.44482C9.38061 9.48904 9.35508 9.5352 9.33301 9.58252C9.35422 9.53702 9.37813 9.49235 9.40625 9.44971L9.41016 9.44482ZM4.0332 9.28662C4.07025 9.21059 4.10876 9.13531 4.14746 9.06006C4.10877 9.13532 4.07024 9.21059 4.0332 9.28662ZM25.3525 9.06006C25.3912 9.13532 25.4298 9.21059 25.4668 9.28662C25.4298 9.21059 25.3912 9.13532 25.3525 9.06006ZM9.78516 9.104C9.74514 9.12546 9.70674 9.14978 9.66992 9.17627C9.67924 9.16957 9.68871 9.16312 9.69824 9.15674L9.78516 9.104ZM18.7295 9.104C18.6899 9.12521 18.6518 9.14921 18.6152 9.17529C18.624 9.16903 18.6327 9.16272 18.6416 9.15674L18.7295 9.104ZM19.7129 9.10303H19.7139H19.7129ZM9.97461 9.0249V9.02588V9.0249ZM2.37695 7.93994C2.18991 8.29289 2.01767 8.65469 1.86035 9.0249C2.01767 8.65467 2.18989 8.29286 2.37695 7.93994ZM4.28613 8.79541C4.32577 8.72291 4.36701 8.6513 4.4082 8.57959C4.36702 8.65131 4.32576 8.72291 4.28613 8.79541ZM25.0908 8.57959C25.132 8.65131 25.1733 8.72291 25.2129 8.79541C25.1733 8.72291 25.132 8.65131 25.0908 8.57959ZM4.56641 8.31006C4.61675 8.22754 4.66925 8.14633 4.72168 8.06494C4.66926 8.14633 4.61674 8.22754 4.56641 8.31006ZM24.7939 8.09131C24.8405 8.16408 24.8877 8.23639 24.9326 8.31006C24.8877 8.23639 24.8406 8.16408 24.7939 8.09131ZM4.86133 7.8501C4.93337 7.7434 5.00929 7.63925 5.08496 7.53467C5.00929 7.63925 4.93336 7.7434 4.86133 7.8501ZM24.4893 7.64014C24.5338 7.7031 24.5798 7.76489 24.623 7.82861C24.5798 7.76489 24.5338 7.7031 24.4893 7.64014ZM5.20117 7.37256C5.24175 7.31841 5.28461 7.26595 5.32617 7.2124C5.28461 7.26595 5.24175 7.3184 5.20117 7.37256ZM24.1729 7.2124C24.2141 7.26559 24.2566 7.31779 24.2969 7.37158C24.2566 7.31779 24.2141 7.26559 24.1729 7.2124ZM22.7695 5.68896L23.1729 6.07373C23.0382 5.9391 22.9006 5.80849 22.7607 5.68115C22.7636 5.68379 22.7666 5.68632 22.7695 5.68896ZM22.3223 5.30029C22.3908 5.35697 22.4569 5.41676 22.5244 5.4751C22.4569 5.41676 22.3909 5.35697 22.3223 5.30029ZM21.8682 4.94385C21.9652 5.01644 22.0602 5.09174 22.1553 5.16748C22.0602 5.09174 21.9652 5.01644 21.8682 4.94385ZM21.4199 4.62549C21.5049 4.68316 21.5883 4.74323 21.6719 4.80322C21.5882 4.74324 21.5049 4.68316 21.4199 4.62549ZM20.9355 4.31299C21.0251 4.3676 21.113 4.42487 21.2012 4.48193C21.113 4.42487 21.0251 4.36759 20.9355 4.31299ZM20.459 4.0376C20.5423 4.08324 20.6247 4.13053 20.707 4.17822C20.6247 4.13053 20.5423 4.08323 20.459 4.0376ZM19.96 3.77979C20.041 3.81925 20.121 3.86051 20.2012 3.90186C20.121 3.86052 20.041 3.81924 19.96 3.77979ZM19.4121 3.52979C19.5163 3.57411 19.6197 3.62015 19.7227 3.66748C19.6197 3.62016 19.5163 3.5741 19.4121 3.52979ZM18.916 3.33252C19.0139 3.36899 19.1112 3.40675 19.208 3.4458C19.1112 3.40676 19.0139 3.36898 18.916 3.33252ZM18.3789 3.14697C18.4769 3.1782 18.5748 3.20989 18.6719 3.24365C18.5748 3.2099 18.4769 3.17819 18.3789 3.14697ZM17.8506 2.99268C17.9433 3.01752 18.0359 3.04276 18.1279 3.06982C18.0359 3.04276 17.9433 3.01751 17.8506 2.99268ZM15.3438 2.59912C15.5374 2.60856 15.7301 2.62348 15.9219 2.64209C15.5349 2.60455 15.1439 2.58545 14.75 2.58545C14.3522 2.58545 13.9572 2.6038 13.5664 2.64209C13.9572 2.60378 14.3521 2.58447 14.75 2.58447L15.3438 2.59912ZM17.249 2.84912C17.3617 2.87306 17.4742 2.89715 17.5859 2.92432C17.4742 2.89716 17.3617 2.87306 17.249 2.84912ZM16.6338 2.73486C16.7746 2.75712 16.9151 2.77992 17.0547 2.80713C16.9151 2.77992 16.7746 2.75711 16.6338 2.73486ZM16.0342 2.65479C16.1862 2.67097 16.3376 2.68855 16.4883 2.71045C16.3376 2.68856 16.1862 2.67097 16.0342 2.65479ZM21.7119 2.34717V2.34619V2.34717ZM8.98926 1.73291C8.80778 1.81485 8.62838 1.90049 8.45117 1.98975C8.52796 1.95107 8.60502 1.9128 8.68262 1.87549L8.98926 1.73291ZM10.9482 1.01807H10.9492H10.9482ZM18.9199 27.8647C18.8304 27.8927 18.7404 27.9187 18.6504 27.9448C18.7404 27.9187 18.8304 27.8927 18.9199 27.8647ZM26.6445 15.1235C26.6351 15.3063 26.6211 15.4883 26.6035 15.6694C26.6211 15.4883 26.6351 15.3063 26.6445 15.1235ZM0.753906 14.1655C0.755885 14.0795 0.759173 13.9935 0.762695 13.9077C0.759172 13.9935 0.755886 14.0795 0.753906 14.1655ZM1.23047 10.8452C1.25098 10.7692 1.27213 10.6934 1.29395 10.6177C1.27213 10.6934 1.25098 10.7692 1.23047 10.8452ZM20.0518 10.6558C20.0443 10.6656 20.0381 10.6765 20.0303 10.686L20.0215 10.6948C20.0321 10.6822 20.0418 10.6688 20.0518 10.6558ZM9.23633 10.064C9.23533 10.0373 9.23529 10.0106 9.23633 9.98389C9.23529 10.0106 9.23534 10.0373 9.23633 10.064ZM3.82129 5.74463C3.92422 5.61645 4.02907 5.48956 4.13672 5.36475C4.02908 5.48957 3.92421 5.61643 3.82129 5.74463Z" fill="#A6A9A6"/>
</g>
<defs>
<clipPath id="clip0_2123_5349">
<rect width="28" height="28" fill="white" transform="translate(0.75 0.496582)"/>
</clipPath>
</defs>
</svg>
