<svg width="40" height="40" viewBox="0 0 40 40" fill="none" xmlns="http://www.w3.org/2000/svg">
<g clip-path="url(#clip0_2010_1193)">
<path d="M19.2841 39.3591H20.9165C29.7912 39.3591 34.2109 39.3591 36.9512 36.6188C39.6758 33.8785 39.6758 29.4431 39.6758 20.5997V18.936C39.6758 10.1279 39.6758 5.69251 36.9512 2.95221C34.2109 0.211914 29.7755 0.211914 20.9165 0.211914H19.2841C10.4094 0.211914 5.98971 0.211914 3.24941 2.95221C0.528687 5.69251 0.528687 10.1318 0.528687 18.9712V20.635C0.528687 29.4431 0.528687 33.8785 3.26899 36.6188C6.00929 39.3591 10.4447 39.3591 19.2841 39.3591Z" fill="white"/>
<path d="M21.3588 28.4134C12.4371 28.4134 7.34799 22.2986 7.1366 12.1204H11.6072C11.756 19.5896 15.0482 22.7566 17.6593 23.4065V12.1204H21.8677V18.564C24.4435 18.286 27.1525 15.35 28.0647 12.1204H32.273C31.5762 15.5066 29.5014 18.4505 26.5457 20.2434C29.8459 21.8837 32.2847 24.8588 33.2477 28.4134H28.6166C27.7437 25.2895 25.0816 22.9954 21.8638 22.5883V28.4134H21.3588Z" fill="#0073F4"/>
</g>
<defs>
<clipPath id="clip0_2010_1193">
<rect width="39.1471" height="39.1471" fill="white" transform="translate(0.508545 0.196289)"/>
</clipPath>
</defs>
</svg>
