<svg width="64" height="64" viewBox="0 0 64 64" fill="none" xmlns="http://www.w3.org/2000/svg">
<path d="M63.9996 36.142L34.4414 34.1644L61.513 44.98C62.7452 42.2179 63.5962 39.2498 63.9996 36.142Z" fill="white"/>
<path d="M57.9298 51.0835C52.073 58.9222 42.6987 64 32.1333 64C14.3866 64 0 49.6732 0 32C0 14.3269 14.3866 0 32.1333 0C42.7183 0 52.1079 5.09677 57.9627 12.9604L31.1179 27.2698L48.3927 9.6H38.8171L27.0562 25.8566V9.6H19.28V54.4H27.0562V38.1696L38.8171 54.4H48.3927L31.5665 37.2858L57.9298 51.0835Z" fill="white"/>
<path d="M61.5127 19.0199L34.6301 29.7587L63.9993 27.8572C63.5959 24.7496 62.7449 21.7817 61.5127 19.0199Z" fill="white"/>
</svg>
