<svg width="84" height="64" viewBox="0 0 84 64" fill="none" xmlns="http://www.w3.org/2000/svg">
<path d="M21.5599 45.9826H6.36987V46.3652H21.5599V45.9826Z" fill="white"/>
<path d="M77.6299 45.9826H62.4399V46.3652H77.6299V45.9826Z" fill="white"/>
<path d="M28.7699 47.6174V49.5304H27.8249V48.4522H23.7649V43.7565H24.7799V47.6522H27.2649V43.7565H28.2799V47.6522L28.7699 47.6174Z" fill="white"/>
<path d="M33.775 47.6522V48.4174H29.75V43.7217H33.67V44.487H30.73V45.6348H33.04V46.3652H30.73V47.6174L33.775 47.6522Z" fill="white"/>
<path d="M39.3398 43.7565V48.4522H38.3248V46.4696H35.8048V48.4522H34.7898V43.7565H35.8048V45.6696H38.3248V43.7565H39.3398Z" fill="white"/>
<path d="M44.695 44.5565H42.98V48.4522H41.965V44.5565H40.25V43.7565H44.66L44.695 44.5565Z" fill="white"/>
<path d="M49.91 45.2522C49.91 46.3304 49.14 46.7131 48.16 46.7131H46.62V48.4522H45.605V43.7565H48.125C49.07 43.7565 49.91 44.1739 49.91 45.2522ZM48.895 45.2522C48.895 44.7652 48.545 44.5565 48.02 44.5565H46.585V45.9478H48.02C48.58 45.9478 48.895 45.7044 48.895 45.2522Z" fill="white"/>
<path d="M53.5498 47.3739H51.1698L50.7498 48.4522H49.7698L51.6248 43.7565H53.1298L54.9848 48.4522H53.9698L53.5498 47.3739ZM53.2698 46.6087L52.3598 44.2087L51.4498 46.6087H53.2698Z" fill="white"/>
<path d="M60.235 43.7565V48.4522H59.255V44.5913H57.33C57.225 46.9913 57.295 48.487 55.895 48.487C55.79 48.487 55.545 48.487 55.335 48.4522V47.6522C55.475 47.6522 55.58 47.687 55.65 47.687C56.385 47.687 56.28 46.1913 56.42 43.7913H60.235V43.7565Z" fill="white"/>
<path d="M12.3199 51.4783V57.7044H10.9899V52.5565H7.69987V57.7044H6.36987V51.4783H12.3199Z" fill="white"/>
<path d="M18.1299 56.2783H14.9799L14.4549 57.7044H13.1599L15.6099 51.4783H17.6049L20.0899 57.7044H18.7249L18.1299 56.2783ZM17.7449 55.3044L16.5549 52.1391L15.3649 55.3044H17.7449Z" fill="white"/>
<path d="M26.4949 53.4957C26.4949 54.9217 25.445 55.4087 24.185 55.4087H22.155V57.7044H20.825V51.4783H24.15C25.41 51.4783 26.4949 52.0696 26.4949 53.4957ZM25.2 53.4957C25.2 52.8696 24.745 52.5913 24.08 52.5913H22.19V54.4348H24.08C24.745 54.4 25.2 54.087 25.2 53.4957Z" fill="white"/>
<path d="M32.9349 52.5565H30.6599V57.7044H29.3299V52.5565H27.0549V51.4783H32.8999L32.9349 52.5565Z" fill="white"/>
<path d="M39.76 51.4783V57.7044H38.43V55.0609H35.07V57.7044H33.74V51.4783H35.07V53.9826H38.43V51.4783H39.76Z" fill="white"/>
<path d="M46.4798 56.6957V57.7391H41.1248V51.4783H46.3398V52.5217H42.4548V54.0522H45.4998V55.0261H42.4548V56.6609H46.4798V56.6957Z" fill="white"/>
<path d="M53.0948 53.4957C53.0948 54.9217 52.0448 55.4087 50.7848 55.4087H48.7548V57.7044H47.4248V51.4783H50.7848C52.0098 51.4783 53.0948 52.0696 53.0948 53.4957ZM51.7998 53.4957C51.7998 52.8696 51.3448 52.5913 50.6798 52.5913H48.7898V54.4348H50.6798C51.3448 54.4 51.7998 54.087 51.7998 53.4957Z" fill="white"/>
<path d="M62.7549 51.4783V57.7044H54.0049V51.4783H55.2999V56.6261H57.7499V51.4783H59.0449V56.6261H61.4949V51.4783H62.7549Z" fill="white"/>
<path d="M70.3149 51.4783V57.7044H69.0199V52.4174L66.1849 57.7044H64.1199V51.4783H65.4149V56.8L68.2499 51.4783H70.3149Z" fill="white"/>
<path d="M77.6298 51.4783V57.7044H76.2998V52.5565H72.9748V57.7044H71.6448V51.4783H77.6298Z" fill="white"/>
<path d="M39.5498 9.1826C44.3448 8.3826 49.1748 7.68695 54.0398 7.40869C56.4898 7.26956 59.0098 7.23478 61.4598 7.33912C61.8798 7.37391 62.4398 7.40869 62.8948 7.44347C63.2798 7.47826 64.0498 7.54782 64.4348 7.5826C68.8098 8.13912 73.8148 9.3913 76.4398 13.1478C76.5798 13.3565 76.7198 13.5652 76.8248 13.8087C76.2648 12.5565 75.3548 11.4435 74.3048 10.5739C73.7798 10.1217 73.1848 9.73912 72.5548 9.3913C63.5948 4.27826 47.1798 6.57391 37.2748 8.48695C31.7798 9.56521 26.3198 10.9217 21.0348 12.6956C18.4098 13.6 15.7848 14.6087 13.2998 15.8956C15.5398 14.9913 17.8848 14.1913 20.1948 13.4956C26.5648 11.687 33.0398 10.3304 39.5498 9.1826Z" fill="white"/>
<path d="M18.7248 15.9304C21.4548 15.2 24.2548 14.5391 27.0548 13.9478C33.0048 12.6956 39.0248 11.6522 45.0448 10.8522C51.0648 10.0522 57.1548 9.46086 63.2098 9.70434C66.2198 9.84347 69.2648 10.1565 72.1348 11.1652C72.8348 11.4087 73.5348 11.7217 74.1998 12.0696C74.8648 12.4174 75.4948 12.8696 76.0198 13.3913C75.0048 12.2783 73.6398 11.4783 72.2398 10.887C68.6698 9.42608 64.7848 9.00869 60.9348 8.86956C60.5848 8.86956 60.4448 8.86956 60.0598 8.83478H59.7798H58.6248C56.1398 8.83478 53.6198 8.97391 51.1348 9.14782C45.2198 9.63478 39.3398 10.5043 33.5298 11.6174C28.0698 12.6609 7.76979 16.8 6.40479 22.1565C7.48979 18.9565 15.5748 16.8348 18.7248 15.9304Z" fill="white"/>
<path d="M72.8699 12.1739C69.5449 11.0261 65.9749 10.6783 62.4749 10.5391C55.9299 10.2957 49.3499 10.8522 42.8399 11.687C34.0899 12.8696 25.3399 14.4 16.9049 16.9391C14.3499 17.7391 11.7949 18.6087 9.4149 19.8609C8.7499 20.2435 8.0849 20.6261 7.5249 21.1478C8.1899 20.7652 8.8899 20.487 9.5899 20.2435C11.7249 19.513 13.9649 19.0261 16.2049 18.5739C22.1549 17.3913 28.2099 16.5217 34.2299 15.6522C43.4349 14.3652 52.6399 13.0435 61.9499 12.6261C65.4849 12.5217 69.1249 12.487 72.5899 13.1826C73.6749 13.4261 74.7249 13.7391 75.7049 14.2609C76.3349 14.6087 76.8949 15.0957 77.2799 15.7217C77.4549 16.0348 77.5949 16.3826 77.6649 16.7304C77.6649 16.3478 77.6299 15.9652 77.4899 15.6174C76.7549 13.8087 74.6549 12.8348 72.8699 12.1739Z" fill="white"/>
<path d="M70.1399 13.7391C64.9249 13.287 59.6749 13.5304 54.4949 13.8783C48.5799 14.2956 42.6299 14.9913 36.7149 15.7565C28.9799 16.8 21.2099 17.913 13.6149 19.687C11.9699 20.1043 7.27994 21.2174 6.43994 22.5391C7.38494 21.2174 12.9499 20.313 14.8049 19.9652C25.0249 18.1913 35.3849 17.0087 45.7099 15.7913C50.0849 15.3043 54.5999 14.8174 59.0099 14.5043C63.4549 14.1913 67.8999 13.913 72.31 14.3304C73.045 14.4 73.7799 14.5043 74.5149 14.6783C75.2499 14.8174 75.9499 15.0261 76.6149 15.4087C76.2999 15.2 75.9849 15.0261 75.6349 14.887C73.8849 14.1565 71.9949 13.913 70.1399 13.7391Z" fill="white"/>
<path d="M54.9849 16.3826C44.8349 17.2174 34.6149 18.3304 24.4999 19.5826C19.4249 20.2435 14.3499 20.8695 9.34487 21.913C8.64487 22.0869 7.90987 22.2261 7.24487 22.4695C8.64487 22.1217 10.1149 21.9478 11.5499 21.7739C27.4049 20.1043 43.5749 18.6087 59.4299 16.9391C62.6849 16.6261 65.9749 16.313 69.2299 16.1043C71.0499 16 72.8699 15.8956 74.6899 15.9652C75.4249 16 76.1599 16.0348 76.8599 16.2087C76.4399 16.0695 75.9849 15.9652 75.5299 15.8956C74.3749 15.7217 73.1499 15.6869 71.9599 15.6174C66.2899 15.513 60.5849 15.9304 54.9849 16.3826Z" fill="white"/>
<path d="M77.1049 16.8348C53.7599 19.0609 30.2399 21.0783 6.85986 22.9565C27.4399 22.713 48.0199 21.0087 68.3899 18.1913C71.2949 17.7739 74.1999 17.3565 77.1049 16.8348Z" fill="white"/>
<path d="M42.6648 23.5826C50.0498 23.0261 57.4348 22.2956 64.6798 21.0087C67.9698 20.4174 71.2248 19.7565 74.3748 18.713C75.2498 18.4 76.1248 18.0869 76.8948 17.6C77.0348 17.4956 77.2098 17.3913 77.3148 17.2522C76.7198 17.7043 76.0198 17.913 75.3198 18.1565C73.2198 18.8174 71.0498 19.2 68.8798 19.5826C66.7098 19.9652 64.5048 20.2783 62.3348 20.5565C55.7548 21.3913 49.1398 21.9826 42.5248 22.4696C36.6798 22.8869 30.6948 23.2348 24.8498 23.4435C21.1748 23.5826 17.4648 23.6869 13.7898 23.6869C11.5848 23.6522 9.3448 23.6869 7.1748 23.3739C8.6098 23.7217 10.1148 23.8261 11.5848 23.9652C21.9448 24.6609 32.3398 24.2435 42.6648 23.5826Z" fill="white"/>
<path d="M23.9399 26.2261C32.8649 26.5391 41.8249 26.2608 50.6799 25.4261C56.9099 24.8 63.1749 23.8956 69.1599 22.1217C71.3299 21.4608 73.4999 20.6956 75.4599 19.513C76.0899 19.0956 76.7199 18.6435 77.1749 18.0522C76.6849 18.6087 76.0549 19.0261 75.3899 19.3739C74.7249 19.7217 74.0599 20.0348 73.3249 20.2782C70.5249 21.3217 67.5499 21.9826 64.6099 22.5391C57.3999 23.8609 50.0149 24.4869 42.6649 24.9043C37.5899 25.1826 32.4449 25.3217 27.3699 25.3565C24.4649 25.3565 6.89487 25.4261 6.36987 22.9565C6.78987 25.4261 21.2449 26.1565 23.9399 26.2261Z" fill="white"/>
<path d="M74.7248 21.0435C73.4648 21.8783 72.0998 22.5043 70.6648 23.0261C67.4798 24.2435 64.1199 25.0087 60.7598 25.6C58.5199 25.9826 56.2448 26.2956 53.9698 26.5391C47.9148 27.2 41.7549 27.4783 35.6649 27.513C28.7699 27.5478 21.8749 27.3739 15.0499 26.4348C13.9299 26.2956 12.7749 26.0869 11.6549 25.8435C10.1849 25.4956 8.67985 25.1478 7.34985 24.3478C8.60985 25.2522 10.1149 25.7043 11.5499 26.1217C16.7649 27.513 22.1549 28 27.5099 28.3478C30.5899 28.5217 33.6699 28.5913 36.7499 28.5913C42.5248 28.5913 48.2998 28.313 54.0398 27.5826C58.2398 27.0609 62.4398 26.2956 66.4998 25.0783C69.9998 24 75.3898 22.0174 77.1748 18.7478C77.3498 18.4 77.4898 18.0522 77.5248 17.6696C77.3148 18.4 76.9298 19.0261 76.4048 19.5826C75.9498 20.1739 75.3548 20.6261 74.7248 21.0435Z" fill="white"/>
<path d="M59.1499 28.3478C58.3799 28.4869 57.3299 28.6609 56.5249 28.7652C55.8949 28.8348 55.1249 28.9391 54.4949 29.0435C50.0499 29.5652 45.4999 29.8087 41.0199 29.8435C33.7749 29.8783 26.4599 29.6 19.2849 28.4869C15.9949 27.9304 8.04992 26.6783 6.54492 23.5826C7.52492 26.0522 12.0749 27.4435 14.5249 28.1391C20.6499 29.7739 26.9849 30.4348 33.3199 30.7826C40.8099 31.1304 48.4049 30.9565 55.8599 29.8783C62.1949 28.9391 70.9449 26.8522 75.4599 22.1565C76.2649 21.3217 76.9299 20.313 77.3149 19.2348C76.9999 19.9304 76.5799 20.5913 76.0899 21.1826C72.3099 25.4261 64.6799 27.3739 59.1499 28.3478Z" fill="white"/>
<path d="M73.6398 24.9391C71.7498 26.5043 69.5448 27.6522 67.2348 28.5565L67.0948 28.6261L66.9548 28.6609L66.6748 28.7652L66.1498 28.9739L65.6248 29.1478C65.3798 29.2174 65.0648 29.3217 64.8198 29.4261C64.7148 29.4609 64.6448 29.4956 64.5398 29.4956L63.4548 29.8087C63.1748 29.913 62.6498 30.0174 62.3348 30.0869C61.9848 30.1913 61.5648 30.2956 61.2148 30.3652C60.1648 30.6087 58.9048 30.8522 57.8548 31.0261C50.8548 32.2087 43.7148 32.3826 36.6448 32.0695C29.5748 31.7217 22.4348 31.0261 15.6098 29.1478C12.8448 28.3478 9.51983 27.2348 7.45483 25.2174C10.6048 28.9043 19.0748 30.8869 23.9048 31.7565C28.2798 32.5217 32.7248 32.9739 37.1698 33.1826C41.2298 33.3565 45.3248 33.3565 49.3848 33.0782C50.2948 33.0087 51.3798 32.9391 52.2898 32.8C54.1798 32.5913 56.1748 32.313 58.0648 31.9652C59.1148 31.7565 60.4098 31.4782 61.4598 31.2C61.8098 31.1304 62.2298 30.9913 62.5798 30.8869C62.8948 30.7826 63.3848 30.6435 63.6998 30.5391C63.8748 30.4696 64.9248 30.1217 65.0648 30.0869C65.4498 29.9478 66.0448 29.7391 66.4298 29.5652C68.9498 28.5565 71.3648 27.2348 73.3948 25.4956C73.6048 25.2869 73.8148 25.113 74.0248 24.9043C74.1648 24.7652 74.3748 24.5217 74.5148 24.3826C74.5848 24.2782 74.8998 23.9652 75.0048 23.8609C75.5998 23.1304 76.1598 22.3304 76.5448 21.4956C75.8448 22.8522 74.8298 23.9652 73.6398 24.9391Z" fill="white"/>
<path d="M34.9298 34.4C28.4548 33.5304 21.9448 32.6609 15.5398 31.3739C16.1698 31.6869 16.8348 31.9304 17.4998 32.1739C23.0298 34.1565 29.0148 34.9217 34.8948 34.9217C35.8398 34.9217 36.7848 34.8869 37.7298 34.8174C36.9248 34.6782 35.7348 34.5043 34.9298 34.4Z" fill="white"/>
<path d="M27.2998 35.4783C24.0798 35.0261 20.5098 34.5043 17.2898 33.9478C20.9998 35.7565 26.5298 36.4174 30.6248 36.0348C30.3448 35.9652 30.0648 35.9304 29.7848 35.8609C29.0498 35.7565 28.0698 35.5826 27.2998 35.4783Z" fill="white"/>
<path d="M22.3648 36.6956C21.0698 36.5217 19.7748 36.313 18.4448 36.1043C20.6498 37.2174 23.7998 37.6 26.2498 37.3217C24.9898 37.0435 23.6948 36.9043 22.3648 36.6956Z" fill="white"/>
</svg>
