<svg width="60" height="64" viewBox="0 0 60 64" fill="none" xmlns="http://www.w3.org/2000/svg">
<path fill-rule="evenodd" clip-rule="evenodd" d="M22.5729 13.182C22.6807 13.4636 22.7328 14.0205 22.7385 14.4086C22.4355 14.766 22.0411 15.0761 21.6901 15.4307C21.5779 15.5441 21.4495 15.7066 21.3406 15.7653C21.2657 15.8058 21.1758 15.7884 21.1014 15.8211C20.9006 15.9095 20.7692 16.1097 20.5496 16.1742C20.3895 16.4226 20.102 16.6096 19.9425 16.8062C19.6234 17.1997 19.4363 17.6399 19.0781 18.0328C18.9659 18.3841 18.779 18.66 18.6366 18.9806C18.5614 19.0089 18.4801 18.9944 18.4159 18.9806C18.328 19.3165 18.1985 19.6762 18.0664 20.0214C18.0555 20.0496 18.0647 20.0849 18.048 20.1143C17.999 20.2 17.9876 20.3939 17.9008 20.5232C17.7472 20.752 17.4831 20.8282 17.2938 21.0251C17.2446 21.1647 17.224 21.3405 17.1282 21.4526C17.069 21.5218 16.9831 21.5286 16.9075 21.5827C16.3205 22.0021 15.968 22.7075 15.528 23.2926C15.4301 23.4227 15.3124 23.5404 15.2521 23.7015C15.1183 23.7863 15.009 23.912 14.8657 24.0361C14.7469 24.1393 14.5488 24.2493 14.4978 24.3893C14.466 24.4767 14.5195 24.6083 14.4978 24.7053C14.4609 24.8698 14.2351 25.0378 14.1115 25.1886C13.8339 25.5274 13.6338 25.7233 13.3207 26.0806C13.1956 26.2234 12.9808 26.3804 12.916 26.5267C12.8231 26.7367 12.8961 26.9416 12.7321 27.1773C12.8923 27.3382 12.9688 27.6165 13.0632 27.7907C13.201 27.8806 13.3321 27.9773 13.4679 28.0695C13.1084 28.4093 12.684 28.6771 12.2724 28.9615C11.052 29.8047 9.78638 30.6783 8.55701 31.4705C7.51013 29.0783 6.75628 26.3854 6.64407 23.1071C6.52983 19.7687 7.27264 16.7544 8.2259 14.4091C10.1756 9.61163 13.5495 5.94017 17.7169 3.40647C19.8167 2.12986 22.2694 1.12946 25.0741 0.544318C26.4485 0.257694 27.9944 0.0374287 29.5989 0.00527179C31.2015 -0.0266992 32.8514 0.0972814 34.3076 0.35844C39.5922 1.30623 43.8447 3.67636 46.9804 6.84484C47.1848 7.05135 47.4156 7.24057 47.5875 7.47682C46.7637 7.57441 45.8156 7.62255 44.9205 7.62552C44.619 7.62645 44.238 7.70619 44.0009 7.64411C43.8973 7.61697 43.7045 7.38704 43.5962 7.29094C43.1037 6.85394 42.5145 6.52438 41.8672 6.17586C41.6214 6.04352 41.4406 5.96266 41.1682 5.84128C40.8492 5.69908 40.3382 5.47547 39.9358 5.39517C39.7357 5.35521 39.489 5.37027 39.292 5.28365C39.2155 5.25 39.1509 5.14684 39.0529 5.09777C38.8965 5.01951 38.7081 4.97676 38.5378 5.00483C38.0845 4.90427 37.6217 4.81951 37.1399 4.72601C36.1512 4.53419 35.1696 4.56021 34.1786 4.41002C33.943 4.37433 33.6757 4.35612 33.4244 4.33567C33.1571 4.31392 32.8747 4.25797 32.652 4.27991C32.5639 4.28864 32.4969 4.3405 32.4128 4.35426C32.1551 4.39627 31.8577 4.35612 31.5668 4.37285C31.2771 4.38939 30.9776 4.36467 30.684 4.39143C29.85 4.46764 29.052 4.48939 28.2378 4.54014C27.619 4.57861 26.9817 4.75575 26.3616 4.76319C26.3112 4.76375 26.1652 4.84646 26.1409 4.72601C26.1164 4.78178 26.0997 4.84535 26.0305 4.85613C25.8563 4.8868 25.7217 4.96617 25.5522 5.00483C25.4595 5.02602 25.303 5.00743 25.2211 5.06059C25.0969 5.14108 25.0132 5.4396 24.9452 5.59964C24.7106 6.15151 24.434 6.80915 24.2462 7.32812C24.3249 8.10342 24.7734 8.50528 25.0186 9.11236C24.8304 9.2698 24.5754 9.45661 24.3563 9.52129C24.3181 9.82223 24.069 10.0023 24.0068 10.2648C23.98 10.3782 24.0212 10.5044 23.9884 10.618C23.9288 10.8249 23.7224 11.0592 23.5837 11.2685C23.537 11.339 23.4436 11.4412 23.4366 11.4544C23.3724 11.5758 23.2131 11.7139 23.1606 11.8262C23.0887 11.9803 23.0598 12.1992 23.0135 12.3652C22.9158 12.7154 22.8869 13.0331 22.5729 13.182Z" fill="white"/>
<path fill-rule="evenodd" clip-rule="evenodd" d="M21.8086 42.8683C21.9129 42.7908 22.0106 42.6775 22.1397 42.5895C22.4072 42.4072 22.6592 42.3051 22.9489 42.1062C23.0736 42.0207 23.2178 41.8689 23.3168 41.8646C23.4051 41.8609 23.4163 41.9245 23.464 41.939C23.5282 41.9585 23.613 41.9523 23.7031 41.9761C23.9215 42.0339 24.2055 42.0888 24.4021 42.2178C24.6884 42.0486 25.011 42.3654 25.2666 42.3107C25.4073 42.2806 25.3922 42.173 25.5057 42.0877C25.9527 42.0154 26.632 41.5412 27.2531 41.8088C27.4091 41.7282 27.7387 41.7851 28.0255 41.8088C28.8066 41.8735 29.8146 41.9748 30.6557 42.0319C30.8461 42.0447 31.033 42.0165 31.2076 42.0319C31.2986 42.0401 31.3926 42.0825 31.4835 42.0877C32.0411 42.1196 32.6293 41.9321 33.1573 42.0319C33.775 41.9077 34.4339 41.7743 35.1438 41.623C35.5349 41.5397 36.0044 41.4627 36.3761 41.3627C36.538 41.3192 36.8988 41.1707 37.0752 41.1769C37.205 41.1813 37.3822 41.3159 37.5351 41.3999C37.808 41.5501 38.1169 41.6384 38.3445 41.8274C38.3943 41.8689 38.435 41.8793 38.4364 41.9761C38.5775 41.8419 38.9813 41.6687 39.2274 41.6973C39.7852 41.3627 40.4027 41.0884 41.0116 40.8053C40.8242 40.5239 40.5339 40.3464 40.4046 40.006C40.2184 39.9779 40.07 39.8276 39.9079 39.7272C39.5858 39.5277 39.2201 39.3458 38.8411 39.1882C38.5873 39.0826 38.3463 38.9657 38.0871 38.9093C37.905 38.8223 37.7359 38.6991 37.5904 38.6119C37.5001 38.5578 37.2575 38.4181 37.1121 38.3889C36.8881 38.3439 36.607 38.3701 36.3581 38.3517C35.6059 38.2963 34.8712 38.4283 34.2428 38.519C34.1045 38.3744 34.1793 38.0379 34.1508 37.7757C34.128 37.5664 34.03 37.4645 34.114 37.2924C34.1749 37.1675 34.4157 37.0909 34.5371 37.0136C34.7728 36.8634 35.0138 36.6413 35.273 36.5117C35.6291 36.3336 36.0228 36.2295 36.3029 36.047C36.3388 35.9779 36.3471 35.881 36.3581 35.7868C36.8496 35.4264 37.4337 35.0656 38.0135 34.7275C38.0786 34.6895 38.1752 34.6098 38.2527 34.6531C38.4846 34.3806 38.8124 34.1691 39.1355 33.9654C39.4359 33.7761 39.6998 33.4763 40.0367 33.3148C40.494 32.8341 41.0044 32.4739 41.3977 31.9766C41.5041 31.8423 41.615 31.7118 41.7289 31.5863C41.9404 31.3532 42.1472 31.1051 42.3359 30.843C42.4176 30.7294 42.4998 30.5677 42.6486 30.527C42.6501 30.3971 42.7553 30.272 42.8326 30.1738C42.917 30.0667 42.9972 29.9731 43.0717 29.8578C43.2183 29.6311 43.3657 29.4035 43.5316 29.2073C43.5945 29.0911 43.6335 28.8732 43.7891 28.7983C43.7768 28.6654 43.8747 28.4903 43.9731 28.408C44.0826 27.9736 44.3226 27.5524 44.4698 27.0884C44.6894 26.3957 44.8736 25.7633 45.0216 24.9138C45.0413 24.8012 45.0544 24.6739 45.0768 24.5607C45.0958 24.4651 45.0897 24.3192 45.2056 24.2819C45.0809 24.1032 45.1986 23.7618 45.1872 23.5198C45.1795 23.4562 45.1927 23.4138 45.2608 23.4268C45.151 23.3188 45.2159 23.1595 45.224 23.0365C45.2685 22.3545 45.1848 21.5258 45.224 20.6762C45.2444 20.2347 45.2087 19.8481 45.1688 19.431C45.1567 19.304 45.0932 19.1598 45.0952 19.0592C45.0989 18.8869 45.2584 18.7401 45.2608 18.5946C45.3331 18.5648 45.2672 18.6748 45.316 18.6689C45.4957 18.1799 45.2023 17.3884 45.5367 17.0891C45.6173 16.7296 45.6997 16.4413 45.7943 16.067C45.8213 15.9601 45.8303 15.809 45.8678 15.7138C45.9022 15.6266 46.0213 15.5341 46.0702 15.4536C46.3573 14.9813 46.6851 14.5123 46.9714 14.0783C47.271 13.9907 47.5702 13.9028 47.8174 13.7623C48.4736 13.7535 49.0407 13.3645 49.6568 13.2232C50.1788 13.1037 50.6904 13.0409 51.2386 12.9072C52.7145 15.7947 53.7367 19.4665 53.4825 23.9099C53.4072 25.2263 53.1828 26.5622 52.8938 27.7384C51.7294 32.4791 49.2861 36.0319 46.254 38.8712C43.2706 41.6646 39.2626 43.8518 34.3903 44.7256C33.1402 44.9498 31.8054 45.1158 30.3991 45.116C26.0561 45.1164 22.4942 44.1821 19.5286 42.7371C19.6508 42.5631 19.9072 42.525 20.0805 42.4025C20.1776 42.5131 20.3686 42.5051 20.5956 42.5512C20.8719 42.6074 21.4666 42.6888 21.6255 42.8115C21.6978 42.8672 21.7893 42.8014 21.8095 42.8672L21.8086 42.8683Z" fill="white"/>
<path d="M11.2453 58.5291C11.2453 56.793 11.2453 56.4815 11.2231 56.1253C11.2008 55.7469 11.1116 55.5688 10.7439 55.4909C10.6547 55.4686 10.4652 55.4575 10.3649 55.4575C10.3204 55.4575 10.2757 55.4352 10.2757 55.3908C10.2757 55.324 10.3314 55.3017 10.454 55.3017H12.7609C12.8834 55.3017 12.9392 55.3238 12.9392 55.3908C12.9392 55.4354 12.8947 55.4575 12.85 55.4575C12.772 55.4575 12.705 55.4686 12.5713 55.4909C12.2703 55.5465 12.1813 55.7357 12.1588 56.1253C12.1366 56.4815 12.1366 56.793 12.1366 58.5291V59.1968H12.1811C12.3706 58.9855 14.3878 56.9376 14.789 56.5036C15.1012 56.1807 15.3909 55.8915 15.3909 55.7023C15.3909 55.5686 15.3352 55.5019 15.246 55.4685C15.1902 55.4461 15.1457 55.4238 15.1457 55.3794C15.1457 55.3238 15.2015 55.3015 15.2795 55.3015H17.1852C17.3077 55.3015 17.3524 55.3237 17.3524 55.3794C17.3524 55.4352 17.3302 55.4573 17.241 55.4573C17.0738 55.4573 16.8398 55.5129 16.6168 55.6131C16.1599 55.8134 15.9147 56.0917 15.4132 56.5702C15.1345 56.8373 13.1954 58.7291 12.9613 59.0074C13.251 59.3303 15.5692 61.7229 16.0261 62.1457C16.9623 63.0138 17.1518 63.1919 17.6867 63.4144C17.9764 63.5367 18.2996 63.559 18.3776 63.559C18.4556 63.559 18.5226 63.5813 18.5226 63.6257C18.5226 63.6813 18.4668 63.7147 18.2774 63.7147H17.709C17.397 63.7147 17.185 63.7147 16.94 63.6926C16.3493 63.637 16.0707 63.3921 15.5914 63.0138C15.09 62.6021 12.7273 60.0535 12.1923 59.397H12.1366V60.4877C12.1366 61.556 12.1366 62.4352 12.1923 62.9026C12.2258 63.2255 12.2926 63.4701 12.627 63.5147C12.783 63.537 12.9614 63.5592 13.0617 63.5592C13.1285 63.5592 13.1509 63.5926 13.1509 63.6259C13.1509 63.6815 13.0952 63.7149 12.9727 63.7149H10.6212C10.4987 63.7149 10.4429 63.6928 10.4429 63.6259C10.4429 63.5924 10.4652 63.5592 10.5321 63.5592C10.6324 63.5592 10.7661 63.5369 10.8666 63.5147C11.0895 63.4701 11.1451 63.2253 11.1898 62.9026C11.2455 62.4352 11.2455 61.5561 11.2455 60.4877L11.2453 58.5291Z" fill="white"/>
<path d="M26.4729 56.9876C26.1435 57.3979 21.6741 63.1566 21.561 63.2705C21.0152 63.8744 20.8917 63.9997 20.8093 63.9997C20.7374 63.9997 20.7166 63.9428 20.7166 63.1908L20.696 56.5135C20.696 55.8296 20.6548 55.5791 20.315 55.4993C20.1916 55.4651 20.1195 55.4651 20.068 55.4651C19.9959 55.4651 19.9547 55.4309 19.9547 55.3854C19.9547 55.317 20.0268 55.3056 20.1401 55.3056H22.0862C22.2098 55.3056 22.2922 55.317 22.2922 55.3854C22.2922 55.4309 22.2819 55.4651 22.2098 55.4651C22.1274 55.4651 22.1912 55.4764 22.0058 55.522C21.6866 55.6131 21.6147 55.8638 21.6042 56.6045L21.5954 62.0865C21.9248 61.7104 26.7812 55.7043 26.9358 55.5107C27.0388 55.3967 27.2137 55.146 27.2961 55.146C27.3785 55.146 27.4094 55.2712 27.4094 55.7157L27.4197 62.245C27.4197 63.2818 27.4713 63.6123 27.7286 63.6921C27.8831 63.7491 28.0684 63.7605 28.1508 63.7605C28.2021 63.7605 28.2332 63.7833 28.2332 63.8289C28.2332 63.9086 28.1714 63.9201 28.0684 63.9201H25.9884C25.8648 63.9201 25.803 63.8973 25.803 63.8289C25.803 63.7833 25.8339 63.7605 25.8854 63.7605C25.9781 63.7605 25.8484 63.8252 26.0439 63.7683C26.3219 63.677 26.4249 63.3809 26.4455 62.4465L26.4729 56.9876Z" fill="white"/>
<path d="M38.2918 60.5569C38.2918 61.6251 38.2918 62.5043 38.3476 62.9718C38.3811 63.2947 38.4478 63.5393 38.7823 63.5839C38.9383 63.6062 39.1835 63.6283 39.2837 63.6283C39.3505 63.6283 39.3729 63.6618 39.3729 63.6952C39.3729 63.7508 39.3172 63.7843 39.1947 63.7843H36.7317C36.6092 63.7843 36.5535 63.7621 36.5535 63.6952C36.5535 63.6618 36.5757 63.6283 36.6427 63.6283C36.7429 63.6283 36.8767 63.606 36.9771 63.5839C37.2001 63.5393 37.2558 63.2945 37.3003 62.9718C37.3561 62.5043 37.3561 61.6253 37.3561 60.5569V59.5262C37.3561 59.4816 37.3226 59.4594 37.2893 59.4594H32.6321C32.5986 59.4594 32.5653 59.4706 32.5653 59.5262V60.5569C32.5653 61.6251 32.5653 62.5043 32.6211 62.9718C32.6545 63.2947 32.7213 63.5393 33.0558 63.5839C33.2117 63.6062 33.457 63.6283 33.5572 63.6283C33.624 63.6283 33.6464 63.6618 33.6464 63.6952C33.6464 63.7508 33.5907 63.7843 33.4682 63.7843H31.0052C30.8827 63.7843 30.827 63.7621 30.827 63.6952C30.827 63.6618 30.8492 63.6283 30.9162 63.6283C31.0164 63.6283 31.1502 63.606 31.2506 63.5839C31.4736 63.5393 31.5293 63.2945 31.5738 62.9718C31.6295 62.5043 31.6296 61.6253 31.6296 60.5569V58.5981C31.6296 56.862 31.6295 56.5504 31.6073 56.1943C31.585 55.8159 31.4958 55.6378 31.1281 55.5599C31.0389 55.5376 30.8494 55.5265 30.7491 55.5265C30.7046 55.5265 30.6599 55.5041 30.6599 55.4597C30.6599 55.393 30.7157 55.3707 30.8382 55.3707H33.1897C33.3122 55.3707 33.3679 55.393 33.3679 55.4597C33.3679 55.5043 33.3234 55.5265 33.2787 55.5265C33.2007 55.5265 33.1337 55.5376 33 55.5599C32.6991 55.6155 32.61 55.8047 32.5878 56.1943C32.5655 56.5504 32.5655 56.9999 32.5655 58.7358V58.9697C32.5655 59.0252 32.599 59.0364 32.6323 59.0364H37.2895C37.323 59.0364 37.3562 59.0252 37.3562 58.9697V58.7358C37.3562 56.9997 37.3562 56.5504 37.334 56.1943C37.3117 55.8159 37.2225 55.6378 36.8548 55.5599C36.7656 55.5376 36.5761 55.5265 36.4758 55.5265C36.4313 55.5265 36.3868 55.5041 36.3868 55.4597C36.3868 55.393 36.4425 55.3707 36.5651 55.3707H38.9166C39.0392 55.3707 39.0948 55.393 39.0948 55.4597C39.0948 55.5043 39.0503 55.5265 39.0056 55.5265C38.9276 55.5265 38.8606 55.5376 38.7269 55.5599C38.4259 55.6155 38.3367 55.8047 38.3145 56.1943C38.2922 56.5504 38.2922 56.862 38.2922 58.5981L38.2918 60.5569Z" fill="white"/>
<path d="M46.0003 55.2149C48.5078 55.2149 50.3803 56.7953 50.3803 59.3883C50.3803 61.9812 48.6194 63.9398 45.9335 63.9398C42.8799 63.9398 41.6093 61.5693 41.6093 59.5663C41.6093 57.7633 42.9244 55.2149 46.0003 55.2149ZM46.2343 63.5172C47.2372 63.5172 49.3102 62.9383 49.3102 59.7C49.3102 57.0291 47.6831 55.5934 45.9223 55.5934C44.061 55.5934 42.6679 56.8176 42.6679 59.2548C42.6679 61.8478 44.2283 63.5172 46.2343 63.5172Z" fill="white"/>
<path d="M46.9392 47.3962L13.2534 47.4218L10.3125 50.4053L13.2534 53.3889L46.9392 53.3632L50.11 50.3797L46.9392 47.3962ZM18.2599 52.0595C18.2599 52.1844 18.2581 52.3342 18.2581 52.3952C18.2581 52.4279 18.2459 52.5117 18.2095 52.5117C18.1913 52.5117 18.1731 52.5057 18.1731 52.4877C18.1731 52.4608 18.1609 52.3561 18.1488 52.3294C18.1245 52.2697 17.9536 52.1859 17.7774 52.1738C17.6536 52.1665 16.3832 52.1591 16.1468 52.158C15.9261 52.1593 14.7401 52.1665 14.6244 52.1738C14.4599 52.1857 14.3005 52.2695 14.2776 52.3294C14.2662 52.3561 14.255 52.461 14.255 52.4877C14.255 52.5056 14.2381 52.5117 14.221 52.5117C14.187 52.5117 14.1755 52.4279 14.1755 52.3952C14.1755 52.3342 14.1632 52.1844 14.1632 52.0595C14.1632 52.0011 14.1526 51.9806 14.1741 51.944C14.1956 51.9074 14.2705 51.913 14.2705 51.913C14.2705 51.913 14.3612 51.9076 14.4609 51.9039C14.5602 51.9002 14.6137 51.7686 14.6807 51.6132L15.9763 48.6612C16.0767 48.4302 16.1032 48.3627 16.1667 48.3627C16.2195 48.3627 16.2406 48.4399 16.3887 48.7287C16.5103 48.9648 16.7483 49.4847 17.0708 50.1879C17.3456 50.7916 17.5886 51.3202 17.663 51.4929C17.7709 51.7407 17.8574 51.9041 17.901 51.9041C17.9446 51.9041 18.0892 51.9055 18.0892 51.9055C18.0892 51.9055 18.2249 51.9072 18.2481 51.9438C18.2713 51.9805 18.2599 52.0011 18.2599 52.0595ZM22.4401 52.1725H21.5323C21.4784 52.1725 21.4513 52.1624 21.4513 52.1321C21.4513 52.1121 21.4648 52.102 21.4874 52.102C21.5277 52.102 21.5383 52.1199 21.6237 52.0948C21.7451 52.0544 21.79 51.9234 21.799 51.5102L21.8156 49.2051C21.6717 49.3865 21.294 49.8899 20.7727 50.5198C20.2965 51.0942 19.6493 51.8351 19.5998 51.8855C19.3616 52.1526 19.3077 52.208 19.2716 52.208C19.2402 52.208 19.2314 52.1829 19.2314 51.8502L19.2223 48.8973C19.2223 48.5949 19.2043 48.4841 19.0561 48.4488C19.0022 48.4337 18.9707 48.4337 18.9483 48.4337C18.9168 48.4337 18.8307 48.4187 18.8307 48.3984C18.8307 48.3681 18.9302 48.3631 18.9799 48.3631H19.8292C19.8831 48.3631 19.9192 48.3681 19.9192 48.3984C19.9192 48.4185 19.9146 48.4337 19.8831 48.4337C19.8472 48.4337 19.8511 48.4322 19.7703 48.4525C19.6309 48.4926 19.5995 48.6036 19.595 48.9311L19.6534 51.2801C19.7972 51.1139 20.0719 50.7165 20.5167 50.1823C21.2087 49.3508 21.8783 48.5395 21.9458 48.4538C21.9907 48.4034 22.0672 48.2925 22.1031 48.2925C22.139 48.2925 22.1526 48.3478 22.1526 48.5445L22.157 51.4319C22.157 51.8905 22.1794 52.0368 22.2918 52.0719C22.3591 52.097 22.4403 52.102 22.4761 52.102C22.4986 52.102 22.512 52.1121 22.512 52.1321C22.512 52.1674 22.485 52.1725 22.4401 52.1725ZM24.5611 50.449C24.5346 50.449 24.4765 50.449 24.45 50.444C24.4235 50.444 24.3918 50.434 24.3918 50.4087C24.3918 50.3683 24.4235 50.3633 24.5346 50.3633C25.0475 50.3633 25.4494 50.0055 25.4494 49.5419C25.4494 49.3756 25.4336 49.038 25.1534 48.7659C24.8731 48.4938 24.5506 48.514 24.429 48.514C24.3391 48.514 24.2493 48.5241 24.2016 48.5443C24.17 48.5544 24.1593 48.5897 24.1593 48.64V50.7113C24.1593 51.1949 24.1593 51.5931 24.1858 51.8048C24.2016 51.9509 24.2335 52.0619 24.392 52.0819C24.4662 52.092 24.5824 52.102 24.6299 52.102C24.6617 52.102 24.6722 52.1171 24.6722 52.1321C24.6722 52.1574 24.6457 52.1725 24.5876 52.1725H23.4296C23.3715 52.1725 23.345 52.1624 23.345 52.1321C23.345 52.1171 23.3556 52.102 23.3873 52.102C23.4349 52.102 23.4984 52.092 23.5458 52.0819C23.6516 52.0617 23.6781 51.9509 23.6993 51.8048C23.7257 51.5933 23.7257 51.1951 23.7257 50.7113V49.8243C23.7257 49.0382 23.7257 48.8971 23.7151 48.736C23.7044 48.5646 23.6623 48.4839 23.4877 48.4486C23.4454 48.4386 23.3554 48.4335 23.308 48.4335C23.2868 48.4335 23.2657 48.4235 23.2657 48.4032C23.2657 48.3731 23.2922 48.3631 23.3503 48.3631C23.5881 48.3631 23.9055 48.3781 23.9478 48.3781C24.064 48.3781 24.3707 48.3631 24.6141 48.3631C25.275 48.3631 25.5131 48.5748 25.5977 48.6503C25.7139 48.756 25.862 48.9828 25.862 49.2499C25.862 49.9655 25.312 50.449 24.5611 50.449ZM28.582 52.0565C28.545 52.1875 28.5027 52.1875 28.2965 52.1875C27.8999 52.1875 27.609 52.1775 27.4028 52.1725C27.1966 52.1624 27.0697 52.1574 26.9904 52.1574C26.9799 52.1574 26.89 52.1574 26.7788 52.1624C26.6731 52.1624 26.5515 52.1725 26.4722 52.1725C26.4141 52.1725 26.3876 52.1624 26.3876 52.1321C26.3876 52.1171 26.3982 52.102 26.4299 52.102C26.4775 52.102 26.541 52.092 26.5886 52.0819C26.6944 52.0617 26.7209 51.9509 26.7419 51.8048C26.7684 51.5933 26.7684 51.1951 26.7684 50.7113V49.8243C26.7684 49.0382 26.7684 48.8971 26.7577 48.736C26.7472 48.5646 26.7049 48.4839 26.5303 48.4486C26.488 48.4386 26.3981 48.4335 26.3506 48.4335C26.3294 48.4335 26.3083 48.4235 26.3083 48.4032C26.3083 48.3731 26.3348 48.3631 26.3929 48.3631C26.5145 48.3631 26.6572 48.3631 26.7737 48.3681L26.9904 48.3781C27.0274 48.3781 28.0798 48.3781 28.2014 48.3731C28.3018 48.3681 28.3864 48.3581 28.4287 48.3478C28.4552 48.3428 28.4764 48.3228 28.5029 48.3228C28.5187 48.3228 28.524 48.343 28.524 48.3681C28.524 48.4034 28.4659 48.877 28.4552 48.9376C28.4499 48.9629 28.4394 48.993 28.4182 48.993C28.3866 48.993 28.3759 48.9679 28.3759 48.9276C28.3759 48.8923 28.3706 48.8068 28.3441 48.7462C28.3071 48.6655 28.2542 48.6051 27.9687 48.5748C27.8787 48.5648 27.3024 48.5596 27.2443 48.5596C27.2231 48.5596 27.2124 48.5748 27.2124 48.6099V50.0009C27.2124 50.0362 27.2178 50.0512 27.2443 50.0512C27.313 50.0512 27.9633 50.0512 28.0849 50.0412C28.2119 50.0312 28.2858 50.0211 28.3334 49.9706C28.3704 49.9304 28.3916 49.9051 28.4127 49.9051C28.4286 49.9051 28.4392 49.9152 28.4392 49.9455C28.4392 49.9758 28.3758 50.5148 28.3758 50.5501C28.3758 50.5905 28.3758 50.6459 28.3388 50.6459C28.3123 50.6459 28.3018 50.6256 28.3018 50.6005C28.3018 50.5501 28.3018 50.4998 28.2807 50.4341C28.2595 50.3637 28.2119 50.278 28.0056 50.2577C27.8629 50.2427 27.3394 50.2326 27.2494 50.2326C27.2229 50.2326 27.2124 50.2477 27.2124 50.268V50.7115C27.2124 50.8828 27.2071 51.4673 27.2124 51.5732C27.2284 51.9208 27.3077 51.9864 27.8259 51.9864C27.9633 51.9864 28.196 51.9864 28.3336 51.931C28.471 51.8756 28.5345 51.7749 28.5715 51.5682C28.5822 51.5128 28.5926 51.4925 28.6189 51.4925C28.6508 51.4925 28.6508 51.5327 28.6508 51.5682C28.6508 51.6085 28.6085 51.9507 28.582 52.0565ZM32.8341 52.1725H32.5731C32.4298 52.1725 32.3324 52.1725 32.2199 52.1622C31.9485 52.1366 31.8205 52.0243 31.6005 51.8507C31.37 51.6617 30.2848 50.4921 30.0393 50.1908H30.0137V50.6914C30.0137 51.1817 30.0137 51.5851 30.0393 51.7996C30.0547 51.9477 30.0852 52.06 30.239 52.0805C30.3106 52.0907 30.3926 52.1009 30.4386 52.1009C30.4692 52.1009 30.4796 52.1163 30.4796 52.1316C30.4796 52.1572 30.4541 52.1725 30.3976 52.1725H29.3176C29.2613 52.1725 29.2357 52.1622 29.2357 52.1316C29.2357 52.1163 29.246 52.1009 29.2766 52.1009C29.3228 52.1009 29.384 52.0907 29.4302 52.0805C29.5326 52.06 29.5582 51.9476 29.5786 51.7996C29.6042 51.5851 29.6042 51.1817 29.6042 50.6914V49.7925C29.6042 48.9958 29.6042 48.8529 29.5941 48.6893C29.5838 48.5157 29.5428 48.4339 29.3739 48.3982C29.3329 48.388 29.2459 48.383 29.1999 48.383C29.1795 48.383 29.1589 48.3728 29.1589 48.3523C29.1589 48.3216 29.1844 48.3114 29.2407 48.3114H30.3003C30.3566 48.3114 30.3822 48.3216 30.3822 48.3523C30.3822 48.3728 30.3615 48.383 30.3411 48.383C30.3053 48.383 30.2745 48.388 30.2131 48.3982C30.0749 48.4239 30.0339 48.5107 30.0238 48.6893C30.0135 48.8527 30.0135 48.9956 30.0135 49.7925V50.099H30.0339C30.1209 50.002 31.0475 49.0624 31.2318 48.8631C31.3751 48.715 31.5081 48.5822 31.5081 48.4954C31.5081 48.4341 31.4826 48.4034 31.4415 48.3882C31.416 48.378 31.3954 48.3677 31.3954 48.3475C31.3954 48.3218 31.4209 48.3116 31.4568 48.3116H32.3323C32.3885 48.3116 32.409 48.3218 32.409 48.3475C32.409 48.3731 32.3988 48.3832 32.3578 48.3832C32.2811 48.3832 32.1735 48.4086 32.0712 48.4547C31.8613 48.5467 31.7488 48.6742 31.5183 48.894C31.3904 49.0166 30.4997 49.8847 30.3923 50.0124C30.5253 50.1605 31.59 51.2585 31.7999 51.4526C32.2298 51.8509 32.317 51.9327 32.5626 52.0347C32.6958 52.0911 32.844 52.1011 32.8799 52.1011C32.9158 52.1011 32.9465 52.1113 32.9465 52.1318C32.9465 52.1574 32.9211 52.1725 32.8341 52.1725ZM37.4366 52.0758C37.4366 52.2007 37.4013 52.3505 37.4013 52.4115C37.4013 52.4442 37.3912 52.5281 37.361 52.5281C37.3459 52.5281 37.3309 52.5221 37.3309 52.5043C37.3309 52.4773 37.3207 52.3727 37.3108 52.3457C37.2906 52.286 37.1489 52.2022 37.0029 52.1901C36.7913 52.1753 34.6788 52.1717 34.5279 52.1669H33.5681C33.5066 52.1669 33.4788 52.1569 33.4788 52.1267C33.4788 52.1117 33.4901 52.0966 33.5235 52.0966C33.5738 52.0966 33.6407 52.0866 33.6909 52.0766C33.8026 52.0563 33.8304 51.8767 33.8528 51.7306C33.8808 51.5193 33.8808 51.1215 33.8808 50.6382V49.7522C33.8808 48.9668 33.8808 48.8259 33.8696 48.6648C33.8585 48.4936 33.8026 48.4081 33.6799 48.3828C33.6185 48.3677 33.546 48.3625 33.5068 48.3625C33.4846 48.3625 33.4623 48.3525 33.4623 48.3324C33.4623 48.3021 33.4903 48.2921 33.5515 48.2921H34.6619C34.7233 48.2921 34.7511 48.3021 34.7511 48.3324C34.7511 48.3525 34.7288 48.3625 34.7064 48.3625C34.6674 48.3625 34.6337 48.3677 34.5669 48.3776C34.4163 48.4027 34.3716 48.4884 34.3604 48.6646C34.3491 48.8257 34.3491 48.9666 34.3491 49.752V50.638C34.3491 51.1213 34.3491 51.5189 34.3771 51.7305C34.3806 51.7606 34.39 51.8052 34.3994 51.8442C34.4102 51.8896 34.4946 51.9273 34.4946 51.9273L35.0914 51.9241H35.9779L36.1341 51.923C36.1341 51.923 36.178 51.9227 36.1994 51.9225C36.2207 51.9225 36.261 51.8953 36.2838 51.8351C36.3064 51.7751 36.3031 51.7617 36.3079 51.7301C36.3358 51.5187 36.3358 51.121 36.3358 50.6377V49.7516C36.3358 48.9663 36.3358 48.8254 36.3246 48.6642C36.3136 48.493 36.2577 48.4075 36.135 48.3822C36.0735 48.3672 36.001 48.362 35.9621 48.362C35.9398 48.362 35.9174 48.3519 35.9174 48.3319C35.9174 48.3016 35.9453 48.2915 36.0066 48.2915H37.1169C37.1784 48.2915 37.2061 48.3016 37.2061 48.3319C37.2061 48.3519 37.1839 48.362 37.1614 48.362C37.1224 48.362 37.0888 48.3672 37.022 48.377C36.8713 48.4021 36.8266 48.4878 36.8154 48.664C36.8044 48.8252 36.8044 48.9661 36.8044 49.7514V50.6375C36.8044 51.1208 36.8044 51.5184 36.8323 51.7299C36.8368 51.7686 36.8426 51.8096 36.8518 51.8492C36.8539 51.8583 36.8627 51.8883 36.884 51.9C36.9179 51.9186 36.9692 51.9178 36.9692 51.9178L37.2604 51.9191C37.2604 51.9191 37.4076 51.9228 37.4269 51.9595C37.446 51.9961 37.4366 52.0175 37.4366 52.0758ZM41.7379 52.1725H40.8301C40.7762 52.1725 40.7491 52.1624 40.7491 52.1321C40.7491 52.1121 40.7627 52.102 40.7852 52.102C40.8255 52.102 40.8361 52.1199 40.9215 52.0948C41.0429 52.0544 41.0878 51.9234 41.0968 51.5102L41.1133 49.2051C40.9695 49.3865 40.5918 49.8899 40.0705 50.5198C39.5942 51.0942 38.9471 51.8351 38.8976 51.8855C38.6594 52.1526 38.6055 52.208 38.5696 52.208C38.5382 52.208 38.5293 52.1829 38.5293 51.8502L38.5203 48.8973C38.5203 48.5949 38.5023 48.4841 38.354 48.4488C38.3001 48.4337 38.2687 48.4337 38.2462 48.4337C38.2148 48.4337 38.1967 48.4187 38.1967 48.3984C38.1967 48.3681 38.2282 48.3631 38.2777 48.3631H39.127C39.1809 48.3631 39.2169 48.3681 39.2169 48.3984C39.2169 48.4185 39.2123 48.4337 39.1809 48.4337C39.1448 48.4337 39.1489 48.4322 39.0681 48.4525C38.9287 48.4926 38.8972 48.6036 38.8928 48.9311L38.9511 51.2801C39.095 51.1139 39.3696 50.7165 39.8144 50.1823C40.5065 49.3508 41.1761 48.5395 41.2436 48.4538C41.2885 48.4034 41.365 48.2925 41.4009 48.2925C41.4367 48.2925 41.4503 48.3478 41.4503 48.5445L41.4548 51.4319C41.4548 51.8905 41.4772 52.0368 41.5896 52.0719C41.6569 52.097 41.738 52.102 41.7739 52.102C41.7964 52.102 41.8098 52.1121 41.8098 52.1321C41.8098 52.1674 41.7828 52.1725 41.7379 52.1725ZM46.0214 48.4333C45.9766 48.4333 45.8921 48.4384 45.8524 48.4484C45.6883 48.4837 45.6486 48.5644 45.6386 48.7358C45.6287 48.8969 45.6287 49.038 45.6287 49.8241V50.7111C45.6287 51.1948 45.6287 51.5929 45.6535 51.8046C45.6734 51.9507 45.6982 52.0617 45.7978 52.0818C45.8425 52.0918 45.9022 52.1018 45.9468 52.1018C45.9767 52.1018 45.9867 52.1169 45.9867 52.132C45.9867 52.1622 45.9618 52.1723 45.907 52.1723H44.8412C44.7866 52.1723 44.7597 52.165 44.7597 52.1398C44.7597 52.1247 44.7816 52.1017 44.8114 52.1017C44.8561 52.1017 44.9425 52.0916 45.0121 52.0816C45.1613 52.0613 45.1911 51.9505 45.206 51.8044C45.2308 51.5929 45.2308 51.1948 45.2308 50.7109V50.5899C45.2308 50.5648 45.2209 50.5496 45.196 50.5496L44.6526 50.5596C44.6228 50.5596 44.6079 50.5696 44.5881 50.5899C44.4887 50.721 44.2551 51.0585 44.0461 51.3356C43.7628 51.7135 43.5886 51.9606 43.3749 52.0764C43.2456 52.147 43.1212 52.1723 42.8429 52.1723H42.4899C42.4003 52.1723 42.3705 52.1622 42.3705 52.132C42.3705 52.1169 42.3904 52.1018 42.4154 52.1018C42.4452 52.1018 42.5149 52.1018 42.6091 52.0868C42.7336 52.0667 42.9472 52.0111 43.2158 51.7239C43.5042 51.4115 43.8423 50.9632 44.25 50.434C43.7461 50.0851 43.5802 49.6429 43.5802 49.27C43.5802 48.9222 43.7989 48.6754 43.9233 48.5847C44.1869 48.3932 44.52 48.3631 44.8333 48.3631H45.9819C46.0365 48.3631 46.0614 48.3731 46.0614 48.4032C46.0614 48.4235 46.0413 48.4333 46.0214 48.4333Z" fill="white"/>
<path d="M45.1909 48.5544C45.1412 48.5393 45.0069 48.5242 44.8577 48.5242C44.3257 48.5242 43.979 48.9023 43.9976 49.5321C44.0071 49.8613 44.2308 50.1191 44.405 50.2401C44.5193 50.3208 44.6324 50.3607 44.7518 50.3607C44.9705 50.3607 45.1214 50.3685 45.196 50.3232C45.2209 50.3081 45.2308 50.2879 45.2308 50.2628V48.615C45.2308 48.5847 45.2157 48.5644 45.1909 48.5544Z" fill="white"/>
<path d="M16.1455 49.1568L15.1314 51.4832C15.0521 51.671 14.9886 51.8204 14.9886 51.8829C14.9886 51.8901 14.9894 51.8977 14.9907 51.9055C15.2059 51.9061 15.3834 51.9065 15.3926 51.9065C15.4167 51.9067 15.4662 51.907 15.4662 51.907L15.7783 51.9082H16.5414L16.7298 51.907C16.7298 51.907 16.7829 51.9069 16.8087 51.9065C16.8188 51.9065 17.0165 51.9059 17.2537 51.9054C17.2562 51.8944 17.2577 51.8834 17.2577 51.8732C17.2577 51.8299 17.2366 51.7624 17.2101 51.6903C17.0938 51.3436 16.4522 49.8022 16.1455 49.1568Z" fill="white"/>
<path fill-rule="evenodd" clip-rule="evenodd" d="M35.5739 5.11766H35.6475C36.1488 5.17491 36.6212 5.26134 37.0821 5.3593C37.2312 5.59035 37.1318 5.75187 37.0086 6.00987C36.7266 6.60022 36.2507 6.97235 35.9786 7.49671C35.7785 7.48463 35.3934 7.50842 35.298 7.32942C35.3741 7.33202 35.44 7.32422 35.4819 7.29224C35.4306 7.20209 35.3131 7.26064 35.206 7.25507C35.192 7.2073 35.1613 7.17626 35.114 7.16213C35.114 6.5952 34.8305 6.22623 34.8933 5.6567C35.1267 5.48365 35.2785 5.22807 35.5739 5.11766Z" fill="white"/>
<path fill-rule="evenodd" clip-rule="evenodd" d="M34.3966 7.47812C34.0546 7.46437 33.7259 7.43723 33.385 7.42236C33.2796 7.31195 33.0966 7.28016 33.0355 7.12495C32.7899 7.07588 32.6538 6.91584 32.4469 6.82755C32.381 6.43237 31.9704 6.00746 32.0973 5.67529C32.1433 5.55484 32.5467 5.1987 32.7596 5.15483C33.1483 5.07491 33.6617 5.23123 34.1207 5.19201C34.2042 5.30893 34.2921 5.46153 34.3782 5.63812C34.4536 5.79258 34.4746 5.97232 34.5254 6.13999C34.568 6.28088 34.6091 6.36044 34.6357 6.58609C34.6552 6.7506 34.7147 6.92198 34.6909 7.05079C34.658 7.22942 34.4913 7.32626 34.3966 7.47812Z" fill="white"/>
<path fill-rule="evenodd" clip-rule="evenodd" d="M32.1159 6.80896C31.5911 7.35042 30.9883 7.81289 30.3869 8.27721C30.1907 8.2207 29.9543 8.27145 29.7615 8.18427C29.6296 8.12461 29.3529 7.88148 29.32 7.75675C29.2891 7.63909 29.329 7.45043 29.3384 7.29206C29.3645 6.85524 29.3717 6.36843 29.3936 5.91675C29.5566 5.70987 29.6954 5.47845 29.8903 5.30335C30.3586 5.37584 30.9673 5.15539 31.3065 5.30335C31.5212 5.39703 31.4901 5.6554 31.6928 5.74946C31.7929 6.14408 31.9914 6.43906 32.1159 6.80896Z" fill="white"/>
<path fill-rule="evenodd" clip-rule="evenodd" d="M29.1178 5.61953C29.1151 6.18646 29.2076 7.15451 29.081 7.664C29.0483 7.7956 28.8975 7.88073 28.8235 7.97999C28.1878 8.11475 27.4736 8.27424 26.8554 8.40751C26.5907 8.46458 26.335 8.63187 26.0645 8.4261C25.9224 8.27089 25.7927 8.1075 25.6415 7.92423C25.4203 7.65619 25.0958 7.43295 25.2368 6.8835C25.2627 6.78257 25.3473 6.66918 25.4023 6.54892C25.5465 6.23367 25.6558 5.80206 25.8438 5.54536C26.7991 5.39053 28.339 5.13792 29.1178 5.61953Z" fill="white"/>
<path fill-rule="evenodd" clip-rule="evenodd" d="M37.597 6.43721C37.5862 6.1227 37.6474 5.88106 37.7626 5.69369C38.0459 5.66563 38.6163 5.50168 38.6822 5.78663C38.7151 5.92902 38.575 6.1675 38.4982 6.2885C38.4274 6.40022 38.2751 6.61769 38.1671 6.64167C37.9581 6.68814 37.7679 6.49111 37.597 6.43721Z" fill="white"/>
<path fill-rule="evenodd" clip-rule="evenodd" d="M39.0317 5.93552C39.2933 5.80318 39.4449 5.94835 39.7123 6.08422C39.8621 6.16025 40.0676 6.22214 40.1538 6.28869C40.2344 6.35077 40.4333 6.5649 40.4482 6.62327C40.5046 6.84353 40.3981 7.21343 40.3562 7.40396C40.2971 7.67181 40.2199 8.03092 39.9515 8.07312C39.6903 8.1142 39.2372 7.98854 39.0687 7.83148C39.0142 7.78073 38.7983 7.44039 38.7744 7.32961C38.6592 6.79539 38.9749 6.31992 39.0317 5.93552Z" fill="white"/>
<path fill-rule="evenodd" clip-rule="evenodd" d="M42.0482 7.29224C41.7086 7.50991 41.4343 7.88185 40.8343 7.77553C40.7123 7.49671 40.718 7.05042 40.8527 6.79056C41.2666 6.47996 42.0429 6.73573 42.0482 7.29224Z" fill="white"/>
<path fill-rule="evenodd" clip-rule="evenodd" d="M37.9098 8.57462C37.4854 8.31383 37.0032 8.06457 36.6959 7.664C36.637 7.58723 36.5448 7.47106 36.5487 7.40377C36.5557 7.28481 36.7472 7.14205 36.8246 7.0506C36.9249 6.93257 37.033 6.72271 37.2477 6.71602C37.4359 6.71026 37.6217 6.83406 37.8364 6.93908C38.0056 7.02179 38.237 7.1928 38.2595 7.31083C38.2955 7.5021 38.1027 7.77441 38.0755 7.99858C38.0453 8.24859 38.086 8.44487 37.9098 8.57462Z" fill="white"/>
<path fill-rule="evenodd" clip-rule="evenodd" d="M32.447 7.38518C32.5664 7.3731 32.9244 7.46864 33.0909 7.57106C33.1858 7.62943 33.2333 7.72199 33.33 7.8127C33.4126 7.89021 33.5289 7.97051 33.5324 8.07293C33.5346 8.13557 33.5035 8.12554 33.4588 8.22163C33.4248 8.29468 33.4343 8.38298 33.422 8.40751C33.3471 8.55752 33.1856 8.68967 33.0541 8.85362C32.9331 9.00455 32.7874 9.21887 32.6862 9.29973C32.557 9.40289 32.2338 9.57891 32.0423 9.57854C31.9491 9.57854 31.5961 9.41125 31.4905 9.35549C31.2881 9.2488 30.9302 9.00771 30.865 8.87221C30.7983 8.73336 30.783 8.33558 30.8282 8.18446C30.8685 8.05025 31.1531 7.88427 31.2513 7.83129C31.3961 7.75341 31.6288 7.68835 31.84 7.58965C32.0352 7.49838 32.2307 7.40712 32.447 7.38518Z" fill="white"/>
<path fill-rule="evenodd" clip-rule="evenodd" d="M43.9244 8.27721C43.7983 8.48484 43.6126 8.67964 43.2805 8.64897C43.0933 8.63168 42.7584 8.588 42.5999 8.53744C42.5469 8.52052 42.5007 8.46179 42.4527 8.4445C42.1748 8.34468 41.8907 8.32703 41.6803 8.24004C41.6176 8.06736 41.6407 7.97702 41.6987 7.81252C41.8806 7.7179 42.0675 7.50693 42.3241 7.49652C42.4674 7.49076 42.8017 7.6205 43.0232 7.70099C43.4577 7.85899 43.7113 7.97683 43.9244 8.27721Z" fill="white"/>
<path fill-rule="evenodd" clip-rule="evenodd" d="M37.781 9.2066C37.6574 9.3566 37.5978 9.55308 37.4315 9.6713C37.3325 9.74156 37.1885 9.74137 37.1188 9.82C37.0345 9.91535 36.9668 10.2267 36.898 10.452C36.8033 10.7617 36.7407 11.1434 36.5117 11.2882C36.1329 11.5278 35.3857 11.3291 34.8563 11.4369C34.7915 11.4501 34.7422 11.4942 34.6723 11.5113C34.5625 11.5381 34.4266 11.521 34.3044 11.5485C33.8653 11.647 33.6194 11.7581 33.2377 11.6228C32.9314 11.5143 32.6251 11.4282 32.4099 11.2325C32.3472 10.9977 32.1317 10.7477 32.1891 10.4148C32.2215 10.2267 32.5278 9.88338 32.6858 9.70847C32.8918 9.4804 33.1131 9.27965 33.2745 9.09507C33.6742 8.63763 34.1074 8.23037 34.5804 8.01717C34.6725 7.97572 35.0261 8.03985 35.2242 8.05434C35.4308 8.0694 35.6451 8.06847 35.8129 8.09152C36.1508 8.13799 36.5941 8.20899 36.8428 8.33316C37.2606 8.54172 37.5154 8.89005 37.781 9.2066Z" fill="white"/>
<path fill-rule="evenodd" clip-rule="evenodd" d="M39.8411 8.51885C39.8549 8.81161 39.7631 8.99767 39.6388 9.15084C39.0304 9.09638 38.4285 9.03559 38.2225 8.57462C38.3787 8.40751 38.4808 8.06884 38.7744 8.12851C39.106 8.19598 39.5979 8.36773 39.8411 8.51885Z" fill="white"/>
<path fill-rule="evenodd" clip-rule="evenodd" d="M55.696 8.27721C55.6005 8.74451 55.2184 8.92221 55.1073 9.3737C54.9953 9.43411 54.9234 9.53486 54.813 9.59676C53.4964 9.6975 52.2389 9.85792 50.9321 9.96851C50.8304 9.71609 50.8295 9.3737 50.8953 9.09507C50.9202 8.98987 51.0079 8.86682 51.0609 8.74191C51.1645 8.49785 51.1882 8.33929 51.4104 8.24004C52.321 8.19989 53.3443 8.19115 54.2797 8.1471C54.7589 8.12461 55.3364 8.06624 55.696 8.27721Z" fill="white"/>
<path fill-rule="evenodd" clip-rule="evenodd" d="M28.7867 11.1022C28.4054 11.2505 28.052 11.1295 27.6096 11.0464C26.882 10.9098 26.2389 10.5563 25.6415 10.3401C25.6223 10.149 25.4242 10.0109 25.4207 9.81963C25.4185 9.69341 25.5612 9.36422 25.6415 9.26199C25.741 9.13504 26.0984 8.91793 26.2853 8.83447C26.6138 8.68782 27.0667 8.57685 27.4808 8.48131C27.9297 8.37777 28.3706 8.25268 28.7131 8.1839C28.9473 8.13687 29.1723 8.34933 29.3938 8.48131C29.5323 8.56384 29.707 8.6406 29.7617 8.72295C30.0624 9.17686 29.5593 9.7858 29.357 10.1354C29.1522 10.4892 28.9602 10.7996 28.7867 11.1022Z" fill="white"/>
<path fill-rule="evenodd" clip-rule="evenodd" d="M60 8.77908C59.7568 8.97741 59.3865 8.98243 59.0436 9.03931C58.3655 9.15177 57.6604 9.27314 56.9283 9.3553C56.4346 9.4107 55.951 9.5488 55.5856 9.39248C55.7068 9.05028 55.8708 8.75139 56.0455 8.46327C56.2282 8.42275 56.3788 8.2274 56.6342 8.20305C56.9474 8.17312 57.3768 8.22089 57.8113 8.24022C58.3437 8.26383 58.9283 8.22461 59.3195 8.35175C59.5458 8.42536 59.8407 8.71272 60 8.77908Z" fill="white"/>
<path fill-rule="evenodd" clip-rule="evenodd" d="M50.7666 8.57462C50.7774 9.24229 50.4844 9.60289 50.2883 10.0615C48.1001 10.4033 45.7657 10.868 43.4829 11.2137C43.1672 11.2615 42.7956 11.3771 42.4897 11.3438C42.2408 11.3167 41.4645 11.0819 41.4781 10.7676C41.4853 10.6014 41.9244 10.3462 42.0484 10.2471C42.2899 10.0542 42.4987 9.96647 42.7106 9.83821C42.8732 9.7397 43.0171 9.59081 43.1889 9.48505C43.3626 9.37817 43.5377 9.28002 43.7224 9.18764C44.0848 9.0066 44.4411 8.74228 44.8259 8.63001C45.2328 8.51142 45.7821 8.55789 46.2054 8.53707C46.6852 8.51346 47.1548 8.48242 47.5849 8.46272C48.5587 8.41811 49.5436 8.42703 50.3806 8.35119C50.5256 8.33799 50.6588 8.44766 50.7666 8.57462Z" fill="white"/>
<path fill-rule="evenodd" clip-rule="evenodd" d="M41.3126 10.0615C41.014 9.95848 40.8001 9.86777 40.5401 9.70829C40.4662 9.66293 40.1018 9.42501 40.0802 9.31794C40.0504 9.16924 40.1943 8.93949 40.2458 8.83466C40.3744 8.57276 40.5238 8.36513 40.8897 8.35138C41.156 8.34134 41.4695 8.53967 41.7908 8.66737C41.9341 8.72425 42.0835 8.77406 42.2323 8.83466C42.4695 8.93132 42.9247 9.12593 42.637 9.42947C42.5024 9.57148 42.2327 9.60364 42.0116 9.6897C41.7322 9.79844 41.5109 9.96089 41.3126 10.0615Z" fill="white"/>
<path fill-rule="evenodd" clip-rule="evenodd" d="M32.0056 9.87558C31.9752 10.1918 31.9171 10.48 31.8952 10.8048C31.6391 10.9486 31.2852 11.0596 30.9204 11.1765C30.3678 11.3535 29.84 11.6258 29.357 11.2881C29.4688 10.7793 29.5542 10.1763 29.7985 9.78264C29.9771 9.49471 30.2039 9.2763 30.7181 9.33653C31.1888 9.39174 31.6833 9.66553 32.0056 9.87558Z" fill="white"/>
<path fill-rule="evenodd" clip-rule="evenodd" d="M59.3929 9.61535C59.2084 9.94045 58.7929 10.0347 58.4366 10.1358C57.6849 10.349 56.9443 10.5797 56.1559 10.7864C55.7701 10.8875 55.3816 11.057 54.9788 11.028C54.8688 10.7003 54.6136 10.4377 54.6844 9.98729C55.9114 9.82781 57.3148 9.61553 58.5653 9.52259C58.8195 9.50363 59.1424 9.52166 59.3929 9.61535Z" fill="white"/>
<path fill-rule="evenodd" clip-rule="evenodd" d="M39.6388 10.6934C39.4449 10.8518 39.3078 11.1862 39.0317 11.2325C38.6309 11.2998 38.3862 11.0014 38.1489 10.805C38.2269 10.3447 38.5884 10.1711 38.9949 10.0429C39.2583 10.2103 39.5278 10.3717 39.6388 10.6934Z" fill="white"/>
<path fill-rule="evenodd" clip-rule="evenodd" d="M54.666 10.8977C54.5829 11.0182 54.5253 11.1645 54.4453 11.2881C52.4049 11.7797 50.1744 12.3167 48.0812 12.8307C46.9642 13.105 45.9206 13.4682 44.568 13.2954C44.3725 13.2705 44.1567 13.232 43.9426 13.2024C43.7417 13.1747 43.4534 13.1848 43.2987 13.1281C43.153 13.0747 43.0371 12.8362 42.9492 12.682C42.8479 12.5041 42.743 12.3262 42.7285 12.1615C42.9165 11.7139 43.4946 11.7699 43.8872 11.6968C45.2257 11.4479 46.5884 11.1899 47.9704 10.9349C49.869 10.5845 51.8432 10.4079 53.6355 10.1358C54.1754 10.0538 54.4331 10.5384 54.666 10.8977Z" fill="white"/>
<path fill-rule="evenodd" clip-rule="evenodd" d="M28.0695 11.8457C28.1283 12.1425 28.4118 12.2862 28.4374 12.5706C28.4488 12.6976 28.3283 13.1643 28.2718 13.277C28.233 13.3547 28.103 13.4515 27.9959 13.5372C27.8809 13.6294 27.7985 13.7377 27.72 13.7974C27.5112 13.956 27.2336 14.0636 26.9841 14.2063C26.7593 14.335 26.433 14.5757 26.2301 14.5967C26.0644 14.6138 25.8708 14.524 25.6966 14.4852C25.0708 14.3456 24.0997 14.4134 23.8021 13.9275C23.7605 13.8597 23.7508 13.7692 23.7101 13.6859C23.6301 13.5223 23.5227 13.4065 23.5078 13.2955C23.446 12.8361 23.7005 12.5033 23.8757 12.2176C23.9688 12.0656 24.1058 11.9292 24.1884 11.7715C24.2421 11.6691 24.2509 11.5559 24.2988 11.4555C24.3998 11.244 24.5879 11.0957 24.6851 10.8793C25.027 10.8096 25.2815 10.6275 25.715 10.6749C25.8265 10.6869 25.9542 10.7481 26.0829 10.7864C26.4185 10.886 26.8482 10.9637 27.1313 11.121C27.5121 11.3323 27.8215 11.6357 28.0695 11.8457Z" fill="white"/>
<path fill-rule="evenodd" clip-rule="evenodd" d="M33.0723 13.4441C32.2773 13.5727 31.2278 13.9117 30.295 13.8344C30.162 13.8234 29.9442 13.8045 29.8167 13.7415C29.6886 13.6783 29.4265 13.3043 29.3384 13.1652C29.1967 12.9418 29.1072 12.6987 28.9705 12.4961C29.0146 12.355 29.065 12.2201 29.1176 12.0872C29.4653 11.8269 30.0477 11.7894 30.6627 11.6782C31.1088 11.5975 31.586 11.4671 31.9502 11.4366C32.1395 11.4208 32.5673 11.5918 32.741 11.6782C32.9222 11.7684 33.3372 12.0695 33.3848 12.273C33.4316 12.473 33.3552 12.7647 33.3113 12.9422C33.2601 13.1483 33.1731 13.321 33.0723 13.4441Z" fill="white"/>
<path fill-rule="evenodd" clip-rule="evenodd" d="M33.6426 11.9386C34.1135 11.8513 34.841 11.7013 35.298 11.6226C35.4668 11.5936 35.6166 11.8682 35.7395 11.9572C35.8239 12.408 35.5108 12.5388 35.2244 12.7563C35.1267 12.8305 35.0217 12.8924 34.9301 12.9608C34.7667 13.0825 34.587 13.2807 34.3046 13.2768C33.7505 13.269 33.5712 12.5805 33.6426 11.9386Z" fill="white"/>
<path fill-rule="evenodd" clip-rule="evenodd" d="M37.4133 12.4589C37.2185 12.7266 36.6368 12.6035 36.2913 12.7191C36.2041 12.6214 36.1203 12.5204 36.0706 12.3846C36.2286 12.2457 36.3949 11.8754 36.6225 11.8641C36.7556 11.8576 36.9499 12.0409 37.0639 12.1243C37.2067 12.2288 37.361 12.318 37.4133 12.4589Z" fill="white"/>
<path fill-rule="evenodd" clip-rule="evenodd" d="M40.7239 12.7749C40.9196 12.6684 41.5957 12.5715 42.0114 12.5704C42.2044 12.5699 42.3764 12.5987 42.3425 12.8678C42.3297 12.9699 42.271 12.9673 42.2322 13.0723C41.9825 13.1184 41.7417 13.2846 41.4595 13.2768C41.181 13.2691 40.9511 13.1048 40.7421 12.998C40.7495 12.9098 40.7096 12.8701 40.7239 12.7749Z" fill="white"/>
<path fill-rule="evenodd" clip-rule="evenodd" d="M39.4548 13.9086C39.4745 13.5656 39.5012 13.2864 39.5836 12.9794C39.9638 12.6163 40.4504 13.1699 40.7239 13.3511C40.7923 13.3965 40.9307 13.4381 40.9447 13.4998C40.9711 13.6166 40.8205 13.7435 40.7239 13.7972C40.6126 13.8591 40.4542 13.8881 40.2824 13.9645C39.9324 14.1203 39.7052 14.1976 39.4548 13.9086Z" fill="white"/>
<path fill-rule="evenodd" clip-rule="evenodd" d="M38.9581 14.6149C38.4723 14.7322 38.0452 14.6036 37.7994 14.3361C37.6969 13.922 37.4694 13.2065 37.873 12.9608C38.2779 12.7141 38.7893 13.0401 39.0685 13.3139C39.1838 13.7145 39.1513 14.3142 38.9581 14.6149Z" fill="white"/>
<path fill-rule="evenodd" clip-rule="evenodd" d="M37.3213 13.1838C37.1955 13.639 37.0983 14.1233 36.843 14.4476C36.3318 14.6142 35.8465 14.8794 35.2428 14.9867C35.1295 15.0067 34.9876 15.0439 34.8933 15.0238C34.7382 14.9907 34.553 14.7177 34.4702 14.5777C34.3239 14.33 34.2665 14.0541 34.1207 13.8528C34.1966 13.6818 34.3239 13.5625 34.4518 13.4439C35.0119 13.3407 35.6688 13.2283 36.2728 13.1093C36.6981 13.0255 37.0102 12.9071 37.3213 13.1838Z" fill="white"/>
<path fill-rule="evenodd" clip-rule="evenodd" d="M43.4093 14.2803C43.2669 14.8071 42.9141 15.2006 42.4713 15.5069C42.0686 15.7856 41.8361 15.888 41.239 15.9345C41.0559 15.9488 40.8032 15.9653 40.6503 15.9159C40.3139 15.8071 40.1912 15.4028 39.8777 15.2281C39.8233 14.874 39.9673 14.6275 40.172 14.466C40.3948 14.2902 40.803 14.0848 41.1652 13.927C41.5574 13.7561 41.9761 13.6087 42.2872 13.518C42.5313 13.447 42.757 13.6757 42.9494 13.834C43.128 13.9811 43.332 14.1106 43.4093 14.2803Z" fill="white"/>
<path fill-rule="evenodd" clip-rule="evenodd" d="M44.6786 14.4662C44.7422 14.2889 44.7972 14.1028 44.8993 13.9643C45.1467 13.9316 45.4608 13.8188 45.7637 13.8156C45.9131 13.8141 46.2148 13.8575 46.2604 13.9457C46.3625 14.1437 45.8892 14.5891 45.7637 14.7264C45.6637 14.8359 45.5945 15.0028 45.359 14.9681C45.2236 14.9482 45.0816 14.808 44.9911 14.745C44.8761 14.6651 44.7693 14.5928 44.6786 14.4662Z" fill="white"/>
<path fill-rule="evenodd" clip-rule="evenodd" d="M34.0289 15.1911C33.5576 15.4315 32.9176 15.6523 32.3367 15.8231C32.1919 15.8657 32.0504 15.9476 31.932 15.9718C31.6454 16.03 31.3144 16.0192 30.994 16.0462C30.7008 16.0709 30.3479 16.1577 30.0744 16.1205C29.9786 16.1075 29.4697 15.8765 29.4306 15.7859C29.386 15.683 29.6182 15.1077 29.7249 14.9497C29.8099 14.8238 30.021 14.6391 30.1664 14.5036C30.3227 14.3577 30.5153 14.1688 30.6631 14.1132C30.968 13.9983 31.4487 14.0132 31.8218 13.9831C32.2462 13.9489 32.7011 13.9303 33.0541 13.8716C33.5201 13.7941 34.1052 14.5489 34.1208 14.8194C34.1278 14.9402 34.043 15.0571 34.0289 15.1911Z" fill="white"/>
<path fill-rule="evenodd" clip-rule="evenodd" d="M29.8169 14.0573C29.9265 14.4482 29.7582 14.8482 29.4306 14.8008C29.1379 14.7582 29.0512 14.1963 29.3202 14.0201C29.4957 14.0208 29.7011 13.9619 29.8169 14.0573Z" fill="white"/>
<path fill-rule="evenodd" clip-rule="evenodd" d="M29.0259 16.1947C28.0413 16.2687 27.4085 15.8538 26.5796 15.7114C26.4179 15.5491 26.3598 15.3114 26.4692 15.0422C26.9713 14.7526 27.6206 14.4928 28.1247 14.2617C28.4221 14.1253 28.6412 14.5158 28.8237 14.7264C28.9188 14.8365 29.1237 15.0601 29.1548 15.1725C29.2282 15.4389 29.1226 15.9863 29.0259 16.1947Z" fill="white"/>
<path fill-rule="evenodd" clip-rule="evenodd" d="M44.7154 16.3991C44.4876 16.2666 44.1458 16.3372 43.9244 16.1947C43.8057 16.1185 43.6734 15.8681 43.6116 15.7486C43.5726 15.6731 43.5502 15.5846 43.5013 15.4883C43.4597 15.4066 43.3868 15.2768 43.3909 15.2281C43.4056 15.0495 44.0046 14.6043 44.1083 14.559C44.6512 14.8355 45.6074 15.1369 45.1751 16.083C45.0399 16.2064 44.8704 16.2956 44.7154 16.3991Z" fill="white"/>
<path fill-rule="evenodd" clip-rule="evenodd" d="M25.899 14.7636C25.9315 14.9474 26.0171 15.2779 25.9358 15.5441C25.9122 15.6211 25.7912 15.738 25.715 15.8601C25.3767 16.4031 25.0223 16.92 24.6483 17.4213C24.4939 17.628 24.3164 17.8213 24.1884 18.0161C24.1189 18.1219 24.083 18.2637 24.0228 18.3507C23.8503 18.5999 23.5859 18.813 23.3422 19.0384C23.0889 19.2728 22.8727 19.5708 22.6432 19.7076C22.5819 19.744 22.4535 19.7589 22.3672 19.8005C22.1649 19.8981 21.9616 20.0286 21.7234 20.1351C21.2677 20.3385 20.8941 20.5435 20.4175 20.7857C20.2109 20.8907 19.9157 21.0623 19.7553 21.0831C19.4598 21.1212 19.1247 20.9669 18.8725 20.86C18.6425 20.3955 18.9269 20.0433 19.1116 19.6334C19.2301 19.3704 19.3075 19.1035 19.4243 18.8899C19.5312 18.6946 19.7256 18.4646 19.8842 18.2393C20.3167 17.6254 20.8161 16.964 21.4293 16.5109C21.9048 16.1594 22.437 15.8447 22.9743 15.5259C23.5168 15.204 24.0646 14.8153 24.6297 14.6525C25.0105 14.5428 25.5568 14.7274 25.899 14.7636Z" fill="white"/>
<path fill-rule="evenodd" clip-rule="evenodd" d="M36.2728 17.793C36.2972 17.2531 36.2144 16.7073 36.2544 16.269C36.2694 16.1025 36.306 15.8553 36.3831 15.73C36.5546 15.4515 37.3036 15.293 37.6338 15.1909C37.8654 15.1194 38.4557 15.3242 38.6086 15.4512C38.7091 15.8722 38.7199 16.546 38.5718 16.9194C38.2453 17.114 37.8296 17.5613 37.4499 17.8114C37.2961 17.9128 36.9867 18.0996 36.8244 18.0903C36.6248 18.0787 36.4676 17.8596 36.2728 17.793Z" fill="white"/>
<path fill-rule="evenodd" clip-rule="evenodd" d="M35.9416 15.5255C35.937 16.0661 36.0036 16.6031 35.8497 17.0309C35.8134 17.1317 35.7257 17.2533 35.6657 17.3655C35.5743 17.5362 35.5261 17.7055 35.3714 17.7745C35.1907 17.8548 34.67 17.9001 34.4334 17.9046C33.8111 17.9161 33.4658 17.5137 33.2011 17.1611C33.2474 16.9785 33.401 16.9047 33.4586 16.7335C33.7868 16.52 34.128 16.1789 34.4702 15.9159C34.7595 15.6934 35.1251 15.4999 35.4634 15.3211C35.6427 15.2263 35.7904 15.4183 35.9416 15.5255Z" fill="white"/>
<path fill-rule="evenodd" clip-rule="evenodd" d="M33.9553 15.5999C33.9963 15.6038 34.1405 15.6581 34.1576 15.7486C34.2007 15.9763 33.8333 16.1582 33.661 16.2876C33.4645 16.435 33.2358 16.6683 33.0355 16.678C32.8865 16.6852 32.4785 16.5185 32.3733 16.4177C32.0122 16.072 32.7708 15.9062 33.0355 15.8229C33.3652 15.7194 33.6556 15.5716 33.9553 15.5999Z" fill="white"/>
<path fill-rule="evenodd" clip-rule="evenodd" d="M40.2826 17.3469C39.8755 17.306 39.5644 17.1681 39.1423 17.1425C39.1132 17.085 39.0788 17.033 39.0319 16.9938C39.1791 16.5754 39.1811 15.8214 39.6205 15.7486C39.7957 15.7196 40.0646 15.8506 40.1724 15.9345C40.2657 16.0069 40.4518 16.2207 40.5219 16.3434C40.5694 16.4263 40.6711 16.6555 40.6691 16.7337C40.6628 16.9717 40.3759 17.1417 40.2826 17.3469Z" fill="white"/>
<path fill-rule="evenodd" clip-rule="evenodd" d="M42.1586 16.6408C42.2285 16.5317 42.207 16.3304 42.2689 16.2133C42.5307 16.0465 42.7748 15.6185 43.2621 15.8415C43.4468 15.9261 43.6755 16.19 43.722 16.3062C43.7864 16.4674 43.7156 16.6551 43.5748 16.7895C43.3841 16.9718 42.984 17.1984 42.5817 17.0869C42.3859 17.0326 42.2934 16.7757 42.1586 16.6408Z" fill="white"/>
<path fill-rule="evenodd" clip-rule="evenodd" d="M28.6579 16.7893C28.7164 17.1122 28.9628 17.3785 29.0442 17.6813C29.0774 17.8049 29.1226 18.0172 29.0994 18.1646C29.0748 18.3211 28.8555 18.4748 28.7315 18.6107C28.3612 19.0161 27.8664 19.433 27.4256 19.6886C27.1304 19.6195 26.8309 19.5485 26.5612 19.4842C26.4229 19.4513 26.3228 19.4671 26.2117 19.4098C25.8524 19.2245 25.5883 18.8146 25.1817 18.6479C25.183 18.4076 25.014 18.3568 24.9978 18.1646C24.9818 17.9745 25.0958 17.7074 25.1634 17.514C25.3258 17.0493 25.3793 16.8458 25.66 16.4919C25.8569 16.2436 25.9913 16.0393 26.4325 16.0458C26.6074 16.0484 26.8246 16.1322 27.0395 16.1945C27.5912 16.3544 28.1885 16.5982 28.6579 16.7893Z" fill="white"/>
<path fill-rule="evenodd" clip-rule="evenodd" d="M31.1228 18.3319C30.4327 18.2919 29.9234 18.0694 29.5409 17.7185C29.5437 17.4826 29.5341 17.2546 29.5961 17.0679C29.6614 16.8716 29.8625 16.615 30.0008 16.5475C30.1715 16.4642 30.4896 16.4402 30.6998 16.3988C30.921 16.3553 31.2215 16.2772 31.3989 16.2687C31.7101 16.2536 32.1393 16.493 32.1531 16.7148C32.1667 16.9363 31.7813 17.4103 31.6748 17.5696C31.4783 17.864 31.3209 18.0934 31.1228 18.3319Z" fill="white"/>
<path fill-rule="evenodd" clip-rule="evenodd" d="M44.5682 16.9566C44.5998 17.1228 44.8057 17.2533 44.8441 17.4213C44.8769 17.5648 44.8451 18.1968 44.7889 18.3319C44.7253 18.4854 44.3427 18.8382 44.1819 18.871C43.9852 18.9109 43.733 18.802 43.5013 18.778C43.4084 18.3787 43.2163 17.9548 43.3357 17.57C43.4315 17.2611 43.8539 17.0917 44.1083 16.938C44.1994 16.883 44.4012 16.9055 44.5682 16.9566Z" fill="white"/>
<path fill-rule="evenodd" clip-rule="evenodd" d="M42.692 19.9489C42.2333 19.7433 41.8854 19.4258 41.5333 19.1126C41.5311 19.0591 41.5434 18.9908 41.5149 18.9639C41.3497 18.8358 41.2817 18.673 41.1838 18.4248C41.1249 18.2752 41.0501 18.1804 41.0734 18.0531C41.087 17.9793 41.2138 17.8373 41.2758 17.7557C41.4502 17.5263 41.6141 17.4341 41.9012 17.2352C41.9818 17.1795 42.3306 17.3862 42.3979 17.4397C42.5377 17.5508 42.6087 17.7118 42.7474 17.83C42.8188 18.1544 42.9766 18.4711 43.0785 18.815C43.16 19.0903 43.1882 19.1453 43.0601 19.3726C42.9485 19.5712 42.8335 19.7764 42.692 19.9489Z" fill="white"/>
<path fill-rule="evenodd" clip-rule="evenodd" d="M40.2274 17.9975C40.1097 18.1789 40.0078 18.4888 39.8411 18.6853C39.7157 18.833 39.5074 18.9507 39.3444 19.0756C39.2009 19.1855 38.9622 19.4267 38.8294 19.4474C38.7578 19.4583 38.5838 19.4001 38.4247 19.373C38.0165 19.3033 37.7786 19.191 37.6154 18.9083C37.669 18.7178 37.7021 18.5143 37.7442 18.3135C37.7786 18.149 37.802 17.8693 37.9282 17.7745C38.0277 17.6997 38.3662 17.6644 38.572 17.6072C38.8671 17.525 39.0869 17.431 39.3996 17.4585C39.7845 17.4925 40.0677 17.7635 40.2274 17.9975Z" fill="white"/>
<path fill-rule="evenodd" clip-rule="evenodd" d="M33.2747 17.886C33.2807 18.2014 33.4397 18.4399 33.4034 18.7037C33.3733 18.9237 33.1409 19.1763 33.0171 19.3728C32.8672 19.6106 32.73 19.826 32.594 20.0048C32.1198 20.0611 31.7355 19.8505 31.6376 19.5401C31.595 19.405 31.526 18.639 31.5641 18.4808C31.6658 18.0576 32.3424 17.7198 32.5756 17.5702C32.7747 17.4425 33.0797 17.8005 33.2747 17.886Z" fill="white"/>
<path fill-rule="evenodd" clip-rule="evenodd" d="M35.6107 20.934C35.2404 21.3933 34.7759 21.7337 34.3416 22.1978C34.2141 22.334 34.0787 22.5675 33.8817 22.5695C33.7485 22.5709 33.3006 22.0941 33.2379 21.9562C32.9665 21.3595 33.1439 20.4007 33.2195 19.763C33.5432 19.3827 33.919 18.8146 34.3598 18.4434C34.5916 18.2483 34.8561 18.0334 35.2242 18.146C35.396 18.1986 35.5167 18.3035 35.6841 18.4434C35.8658 18.5953 36.0982 18.705 36.1072 18.9825C36.1168 19.2801 35.9584 19.6529 35.8864 19.986C35.8086 20.3461 35.7198 20.665 35.6107 20.934Z" fill="white"/>
<path fill-rule="evenodd" clip-rule="evenodd" d="M29.9272 18.4806C30.1862 18.634 30.528 18.7037 30.81 18.8338C30.9598 19.1161 31.0644 19.444 31.1963 19.7444C30.9401 20.2476 30.6787 20.7453 30.3685 21.1941C29.9136 21.3346 29.3101 21.5487 28.7315 21.6587C28.5299 21.697 28.3143 21.7766 28.1429 21.7703C27.9825 21.7643 27.6712 21.6584 27.6094 21.5286C27.5689 21.4437 27.5765 21.2643 27.5542 21.1197C27.4941 20.729 27.5189 20.3478 27.6462 20.0046C28.4482 19.5388 28.9994 18.8193 29.9272 18.4806Z" fill="white"/>
<path fill-rule="evenodd" clip-rule="evenodd" d="M41.7723 20.9712C41.5085 21.005 41.2817 21.0613 41.0181 21.1199C40.7883 21.171 40.4603 21.2725 40.2088 21.1942C39.9263 21.1063 39.8097 20.513 39.749 20.1535C39.7123 19.9371 39.6818 19.6193 39.7122 19.4472C39.7353 19.3154 39.9811 18.9014 40.0801 18.8338C40.2031 18.7498 40.3871 18.755 40.5216 18.7222C40.7703 18.8118 41.0317 18.8659 41.2022 19.0382C41.2909 19.1278 41.3023 19.244 41.3678 19.3542C41.4698 19.5262 41.6163 19.6901 41.7173 19.8933C41.824 20.1076 41.9044 20.3182 41.9564 20.5439C41.9031 20.6944 41.8587 20.8541 41.7723 20.9712Z" fill="white"/>
<path fill-rule="evenodd" clip-rule="evenodd" d="M23.6183 20.934C23.4656 20.7076 23.2484 20.4189 23.1584 20.1535C23.1145 20.0234 23.0843 19.8187 23.1216 19.6888C23.1728 19.5107 23.5521 19.3104 23.7103 19.2055C23.9377 19.0548 24.1652 18.9141 24.3541 18.7966C24.5223 18.6921 24.6258 18.8373 24.814 18.9453C25.1407 19.1329 25.5769 19.3169 25.7704 19.6331C25.7921 19.6686 25.9076 19.9247 25.8992 19.9676C25.8808 20.0609 25.3219 20.368 25.2185 20.4323C24.9704 20.5866 24.7263 20.776 24.5379 20.8784C24.2736 21.0221 23.9345 21.0755 23.6183 20.934Z" fill="white"/>
<path fill-rule="evenodd" clip-rule="evenodd" d="M44.4394 20.2834C44.0693 20.3886 43.7628 20.1306 43.3359 20.1719C43.1457 19.9005 43.335 19.5343 43.4831 19.3356C43.7351 19.2204 43.9545 19.3806 44.2189 19.41C44.3427 19.6273 44.4021 19.994 44.4394 20.2834Z" fill="white"/>
<path fill-rule="evenodd" clip-rule="evenodd" d="M39.3812 19.8931C39.4175 20.4704 39.3255 21.0745 39.1973 21.5472C38.7797 21.7236 38.317 21.8747 37.7074 21.9562C37.492 21.985 37.2255 22.061 37.0452 22.0305C36.8804 22.0026 36.6841 21.7948 36.5485 21.6959C36.3752 21.5693 36.201 21.4822 36.0702 21.3428C36.0112 20.7825 36.2297 20.5926 36.4749 20.2834C36.5774 20.1543 36.7023 19.9286 36.8428 19.8373C37.0481 19.7041 37.3998 19.6892 37.6704 19.6886C38.1966 19.6877 38.9092 19.6591 39.3812 19.8931Z" fill="white"/>
<path fill-rule="evenodd" clip-rule="evenodd" d="M27.1865 21.287C26.8425 21.7076 26.571 22.2013 26.1565 22.5508C25.6966 22.5023 25.4382 22.276 25.145 22.0303C25.0162 21.9225 24.8262 21.813 24.7954 21.6772C24.7548 21.497 24.8194 21.1545 24.9058 21.008C25.112 20.6589 26.0048 20.4567 26.4692 20.2461C26.545 20.2117 26.7064 20.242 26.8004 20.2833C27.0066 20.5396 27.1032 20.9067 27.1865 21.287Z" fill="white"/>
<path fill-rule="evenodd" clip-rule="evenodd" d="M22.9561 20.5437C23.0087 20.9123 23.1295 21.2552 23.0665 21.603C22.982 22.0692 22.4726 22.3246 22.2756 22.6623C22.1489 22.6541 22.0689 22.5987 21.9445 22.588C21.8529 22.3294 21.7683 22.0883 21.6502 21.826C21.4955 21.4822 21.2758 21.2069 21.3743 20.7295C21.6393 20.5576 21.9785 20.4606 22.2938 20.3392C22.5214 20.4004 22.7576 20.453 22.9561 20.5437Z" fill="white"/>
<path fill-rule="evenodd" clip-rule="evenodd" d="M43.0416 20.395C43.6832 20.484 44.3031 20.5946 44.7338 20.8968C44.8169 21.6872 44.3506 21.9221 44.0715 22.3465C43.584 22.3417 42.9746 22.622 42.4897 22.6625C42.1142 22.6939 42.0261 22.5844 41.8091 22.3837C41.6341 22.2218 41.5147 22.0833 41.4595 21.826C41.8206 21.181 42.4479 20.805 43.0416 20.395Z" fill="white"/>
<path fill-rule="evenodd" clip-rule="evenodd" d="M32.2999 20.4507C32.5714 21.05 32.7662 21.7264 32.9253 22.4394C32.5142 23.1205 32.0812 23.7794 31.5275 24.3166C31.0709 24.301 30.5345 24.3659 30.1848 24.2423C29.9364 23.8551 29.6765 23.4796 29.4673 23.0528C29.5961 22.4909 30.0306 22.053 30.3501 21.6218C30.6665 21.1948 30.8658 20.7427 31.2147 20.4695C31.5107 20.3853 31.9682 20.4481 32.2999 20.4507Z" fill="white"/>
<path fill-rule="evenodd" clip-rule="evenodd" d="M21.0801 21.3242C21.1335 21.5186 21.2151 21.7063 21.2825 21.9004C21.3468 22.0857 21.4671 22.3041 21.4848 22.4766C21.4964 22.59 21.4432 22.7523 21.4296 22.9041C21.4162 23.0528 21.4392 23.2166 21.4112 23.3502C21.3901 23.4514 21.3043 23.5183 21.2641 23.6291C21.0886 24.1107 21.07 24.7659 20.9329 25.2832C20.8592 25.5613 20.6844 25.7979 20.6754 26.0453C20.5349 26.1618 20.371 26.2235 20.1787 26.2869C20.018 26.3401 19.7738 26.4635 19.6269 26.4542C19.4512 26.4432 19.1458 26.1395 19.0198 26.0267C18.8543 25.8784 18.6011 25.6653 18.5415 25.4876C18.4735 25.2847 18.5047 24.9824 18.5047 24.7071C18.5047 24.1802 18.5218 23.8397 18.6335 23.4434C18.6955 23.2233 18.8233 22.9911 18.9278 22.7556C19.0404 22.5019 19.1088 22.227 19.2038 22.0493C19.513 21.4706 20.2479 21.3742 20.6936 21.213C20.8163 21.1686 20.939 21.2734 21.0801 21.3242Z" fill="white"/>
<path fill-rule="evenodd" clip-rule="evenodd" d="M18.5417 21.603C18.5629 22.6712 18.1898 23.3413 18.1186 24.3164C17.9525 24.667 17.6341 24.9945 17.4012 25.32C17.3208 25.4324 17.264 25.5696 17.1804 25.6732C17.046 25.8399 16.8182 25.9891 16.6654 26.1193C16.3118 26.4202 16.0933 26.7286 15.7274 27.0671C15.5938 27.1905 15.3227 27.4466 15.1939 27.476C14.8519 27.5541 14.4859 27.2607 14.1456 27.2529C14.1825 27.0882 13.9945 26.8533 13.9984 26.6767C14.0023 26.5005 14.2559 26.1484 14.3663 25.9332C14.5089 25.6551 14.6045 25.4259 14.7342 25.2083C14.9925 24.7744 15.3827 24.3373 15.6722 23.9631C16.1871 23.2978 16.5918 22.7896 17.1069 22.1231C17.2553 21.9311 17.4227 21.6125 17.5851 21.5097C17.9387 21.2861 18.2847 21.3392 18.5417 21.603Z" fill="white"/>
<path fill-rule="evenodd" clip-rule="evenodd" d="M36.1256 23.4244C35.8211 23.3913 35.4965 23.3787 35.1508 23.3872C35.0147 23.2893 34.9284 23.1411 34.8013 23.0341C34.8328 22.7328 34.8567 22.3259 35.0036 22.0491C35.0925 21.8816 35.4302 21.4961 35.6475 21.4729C35.8498 21.6673 36.1236 21.9333 36.3097 22.2348C36.3684 22.33 36.4619 22.4435 36.4753 22.5136C36.5468 22.8894 36.3018 23.1963 36.1256 23.4244Z" fill="white"/>
<path fill-rule="evenodd" clip-rule="evenodd" d="M25.6598 23.5545C25.5798 23.7525 25.4823 23.9326 25.4023 24.1307C25.1479 24.2677 24.7189 24.4181 24.4091 24.391C24.2585 24.3778 24.0559 24.2488 23.8941 24.1679C23.4241 23.9335 23.1461 23.5339 22.8089 23.1644C22.6638 22.511 23.191 21.9316 23.5631 21.6961C23.6511 21.6403 24.1176 21.6327 24.2806 21.6961C24.4676 21.769 24.704 22.1664 24.814 22.3839C25.1639 22.7056 25.3854 23.1567 25.6598 23.5545Z" fill="white"/>
<path fill-rule="evenodd" clip-rule="evenodd" d="M41.3678 22.1606C41.3678 22.5056 41.4973 22.7783 41.4597 23.0712C41.4051 23.4969 40.9691 23.911 40.8895 24.3722C40.7646 24.4153 40.5968 24.4856 40.4112 24.5023C40.104 24.53 39.6237 24.5644 39.3996 24.5023C39.301 24.475 38.9817 24.1272 38.9581 24.019C38.9199 23.8424 39.0352 23.369 39.0869 23.2014C39.1651 22.9474 39.2611 22.7394 39.3076 22.495C39.5801 22.4 39.592 22.0028 39.8227 21.863C40.0035 21.7535 40.2396 21.8073 40.4482 21.6772C40.7942 21.7983 41.087 21.9734 41.3678 22.1606Z" fill="white"/>
<path fill-rule="evenodd" clip-rule="evenodd" d="M28.6395 22.235C28.7321 22.4707 28.9817 22.6943 29.0259 22.9785C29.0878 23.3774 28.8323 23.7231 28.7499 24.0564C28.5711 24.2151 28.3316 24.3759 28.0877 24.5583C27.7271 24.8278 27.5056 25.0419 27.1129 25.2832C26.8811 25.4256 26.7146 25.5737 26.3955 25.4133C26.2752 25.3529 25.8977 24.9728 25.8068 24.8371C25.7426 24.7412 25.7327 24.6066 25.6597 24.5397C25.8806 23.8789 26.0452 23.2882 26.4321 22.8112C26.665 22.5242 26.9803 22.3205 27.2045 22.0307C27.6361 21.9993 28.2273 22.1234 28.6395 22.235Z" fill="white"/>
<path fill-rule="evenodd" clip-rule="evenodd" d="M38.5536 24.3164C38.3824 24.3458 38.2492 24.5384 38.0753 24.5395C37.9727 24.5402 37.5967 24.2954 37.4867 24.2235C37.1513 24.0038 36.8116 23.7012 36.6407 23.3315C36.7238 23.0253 36.9293 22.8426 37.0454 22.5696C37.4067 22.4143 37.8619 22.2547 38.2409 22.1792C38.4495 22.2956 38.7538 22.3409 38.8111 22.5881C38.8614 22.8051 38.762 23.2017 38.7192 23.4988C38.6739 23.8131 38.6277 24.1166 38.5536 24.3164Z" fill="white"/>
<path fill-rule="evenodd" clip-rule="evenodd" d="M44.605 23.2014C44.6296 23.4794 44.8498 23.7222 44.8625 24.0004C44.871 24.1865 44.7932 24.5281 44.7522 24.7068C44.717 24.8603 44.6447 25.0367 44.5866 25.2272C44.4508 25.6722 44.3403 25.7023 43.8508 25.822C43.458 25.9181 42.6668 26.1111 42.3425 25.822C42.1887 25.4157 41.8046 24.9443 41.6435 24.4839C41.5925 24.338 41.5287 24.1125 41.5515 23.9634C41.5745 23.8123 41.7434 23.6131 41.8275 23.4802C41.9093 23.3508 42.0149 23.1231 42.1402 23.0526C42.3059 22.9595 42.995 22.9045 43.3173 22.8854C43.5301 22.8727 43.8107 22.858 43.9795 22.8854C44.2566 22.9302 44.3936 23.1294 44.605 23.2014Z" fill="white"/>
<path fill-rule="evenodd" clip-rule="evenodd" d="M34.6541 23.6289V24.1493C34.4709 24.3445 34.268 24.5209 34.0655 24.7255C33.8022 24.9915 33.6275 25.2908 33.2561 25.4133C33.09 25.3581 32.9446 25.2819 32.8146 25.1902C32.7451 24.9441 32.5341 24.4153 32.5938 24.038C32.6148 23.9056 32.7186 23.7411 32.7962 23.6105C32.9034 23.4296 33.044 23.174 33.2745 23.1644C33.7379 23.145 34.3241 23.3818 34.6541 23.6289Z" fill="white"/>
<path fill-rule="evenodd" clip-rule="evenodd" d="M24.0598 25.3945C23.7973 25.7551 23.5184 26.099 23.177 26.3795C22.8051 26.3189 22.3577 26.1693 21.9447 26.0635C21.6469 25.9873 21.3023 26.0245 21.1171 25.7847C21.1441 25.0191 21.38 24.4644 21.6505 23.9447C22.0078 23.854 22.8523 23.8168 23.1404 23.9633C23.4222 24.1064 23.6481 24.4391 23.7842 24.744C23.8786 24.9555 23.8683 25.2757 24.0598 25.3945Z" fill="white"/>
<path fill-rule="evenodd" clip-rule="evenodd" d="M37.781 25.1529C37.717 25.4596 37.6447 25.7614 37.5419 26.0449C37.5115 26.1287 37.4361 26.2081 37.4131 26.2866C37.3899 26.3654 37.4245 26.4529 37.3947 26.5282C37.3126 26.7349 37.0356 26.9182 36.8428 27.0672C36.742 27.1451 36.6362 27.2635 36.5485 27.2903C36.3167 27.3607 35.9782 27.341 35.7023 27.3646C35.4277 27.3882 35.155 27.3964 34.8931 27.4576C34.7139 27.3351 34.5224 27.225 34.4148 27.0301C34.4139 26.6479 34.2629 26.2393 34.3412 25.8406C34.3747 25.6702 34.6552 25.3436 34.7827 25.1343C35.0073 24.7655 35.1953 24.1266 35.6655 24.1307C35.9133 24.1328 36.2669 24.1986 36.5483 24.2794C36.8208 24.3577 37.153 24.4794 37.3207 24.5954C37.5143 24.7291 37.6272 24.9809 37.781 25.1529Z" fill="white"/>
<path fill-rule="evenodd" clip-rule="evenodd" d="M18.2476 24.7254C18.2597 24.9031 18.217 25.023 18.2476 25.1715C18.1309 25.2915 18.0007 25.2445 17.8429 25.1901C17.9141 25.0081 18.0553 24.8967 18.1188 24.7068C18.1769 24.6977 18.1837 24.7402 18.2476 24.7254Z" fill="white"/>
<path fill-rule="evenodd" clip-rule="evenodd" d="M32.5574 25.7847C32.2292 26.4068 31.7936 27.0923 31.3803 27.7548C31.1916 28.0572 31.0885 28.3381 30.7548 28.4426C30.5122 28.5184 30.1907 28.4903 29.9088 28.5169C29.6454 28.5416 29.3586 28.5747 29.0812 28.5913C28.8274 28.6065 28.5246 28.5953 28.1984 28.6098C27.9177 28.6223 27.5732 28.7085 27.3524 28.6656C27.2936 28.6541 27.1631 28.5686 27.0765 28.5169C26.8252 28.3671 26.5452 28.1851 26.2857 28.0336C26.3055 27.3329 26.3188 26.4871 26.6168 26.0077C27.3211 25.6209 28.1638 25.0787 28.971 24.7254C29.0788 24.6782 29.5584 24.6884 29.7986 24.7068C30.0304 24.7246 30.3332 24.8081 30.6448 24.8555C30.952 24.9023 31.2727 24.9118 31.546 24.9484C31.7274 24.9728 32.0357 25.0332 32.1347 25.0971C32.3409 25.2304 32.3954 25.6053 32.5574 25.7847Z" fill="white"/>
<path fill-rule="evenodd" clip-rule="evenodd" d="M37.3765 28.4426C37.325 27.9022 37.3174 27.3743 37.5236 26.9743C37.6568 26.7161 37.9604 26.4291 38.1491 26.1938C38.2836 26.026 38.5893 25.5661 38.7929 25.4503C39.0348 25.3127 39.4388 25.273 39.7493 25.1901C40.0861 25.1003 40.4384 25.012 40.7425 24.9112C41.1869 25.0166 41.5173 25.212 41.7724 25.5618C41.8453 25.6616 41.9489 25.7278 41.9564 25.822C41.9687 25.9782 41.7598 26.2691 41.6621 26.454C41.3477 27.0485 40.8477 27.5892 40.5769 28.1267C40.335 28.268 40.0725 28.4346 39.8043 28.61C39.5479 28.7779 39.2964 29.01 39.0501 29.1119C38.8934 29.1768 38.6809 29.2362 38.4982 29.2048C38.2975 29.1703 38.1392 28.9149 37.9648 28.7959C37.7527 28.6513 37.5593 28.5853 37.3765 28.4426Z" fill="white"/>
<path fill-rule="evenodd" clip-rule="evenodd" d="M25.0162 25.0414C25.2901 25.0269 25.9374 25.4678 26.0094 25.6919C26.0806 25.9137 26.0995 26.4886 26.0462 26.7512C26.0165 26.897 25.8541 27.049 25.7334 27.2159C25.608 27.3896 25.5272 27.562 25.4023 27.662C25.2298 27.8003 24.9571 27.8752 24.7401 27.9595C24.5684 28.026 24.2035 28.2121 24.041 28.1639C23.8906 28.1191 23.7901 27.8511 23.7099 27.7178C23.6152 27.5604 23.4908 27.3474 23.4524 27.2159C23.3113 26.7334 23.4327 26.5762 23.7099 26.2682C23.9829 25.9648 24.1579 25.7308 24.4273 25.4319C24.5933 25.2479 24.7417 25.0559 25.0162 25.0414Z" fill="white"/>
<path fill-rule="evenodd" clip-rule="evenodd" d="M18.8176 26.6397C18.3804 26.8959 17.9602 27.1728 17.5118 27.4574C17.2423 27.6284 17.0143 27.7935 16.5186 27.7362C16.346 27.1329 16.7316 26.8111 16.9785 26.4538C17.1676 26.18 17.3057 25.9094 17.4935 25.7103C17.7985 25.4731 18.1519 25.7319 18.4315 25.8404C18.587 26.0799 18.8142 26.2468 18.8176 26.6397Z" fill="white"/>
<path fill-rule="evenodd" clip-rule="evenodd" d="M21.2089 29.6877C20.9041 29.5931 20.522 29.5766 20.1789 29.5205C19.6677 29.2416 19.875 28.2834 19.8662 27.7176C19.949 27.4791 20.1668 27.3769 20.3997 27.2901C20.5137 27.0089 20.6206 26.7202 20.786 26.491C20.9898 26.4287 21.1507 26.273 21.3746 26.2866C21.5919 26.2997 21.8902 26.4167 22.1104 26.5096C22.3444 26.6085 22.5654 26.7222 22.6991 26.8628C22.8245 27.3959 22.8429 28.0435 22.5887 28.4426C22.1149 28.8435 21.7017 29.3061 21.2089 29.6877Z" fill="white"/>
<path fill-rule="evenodd" clip-rule="evenodd" d="M33.3114 26.3981C33.3081 26.3823 33.3186 26.3806 33.3298 26.3795C33.4321 26.4373 33.5925 26.4362 33.6978 26.491C33.7631 26.5869 33.942 26.7591 33.9921 26.9371C34.0785 27.2451 34.2218 27.8228 34.2128 28.0894C34.2062 28.2842 34.1227 28.4792 33.9921 28.5913C33.4897 28.5844 32.7975 28.6091 32.2631 28.5727C32.1553 28.4957 32.0714 28.3948 31.9688 28.3124C31.9329 28.0723 31.7964 27.8691 31.8768 27.6247C31.994 27.2682 32.4585 26.9903 32.7596 26.7512C32.9706 26.5838 33.1207 26.4321 33.3114 26.3981Z" fill="white"/>
<path fill-rule="evenodd" clip-rule="evenodd" d="M41.3861 28.6656C41.3587 28.4284 41.3677 28.1814 41.3677 27.9407C41.3677 27.715 41.3339 27.4364 41.4045 27.2529C41.4538 27.1251 41.6415 26.9996 41.7541 26.8812C41.8633 26.7663 41.9853 26.5654 42.1036 26.5094C42.2443 26.4429 42.702 26.3728 42.8394 26.3793C43.1339 26.3932 43.3548 26.6972 43.6118 26.7882C43.6124 26.9364 43.6863 27.0102 43.7222 27.1228C43.4948 27.6329 43.1497 28.3706 42.7658 28.8141C42.6667 28.9286 42.4064 29.1591 42.2691 29.1859C41.86 29.2656 41.6553 28.8374 41.3861 28.6656Z" fill="white"/>
<path fill-rule="evenodd" clip-rule="evenodd" d="M19.3143 27.1788C19.4094 27.5085 19.3967 27.8697 19.4247 28.2195C19.453 28.5728 19.5281 28.9411 19.4983 29.2788C19.4725 29.5695 19.3066 29.8905 19.204 30.1708C19.0945 30.4695 18.9845 30.7573 18.8544 30.9885C18.7908 31.0049 18.7338 31.0276 18.7073 31.0815C18.2759 31.0922 17.9542 30.9815 17.5669 30.8398C17.0664 30.6567 16.8589 30.5378 16.5922 30.1521C16.5063 30.0279 16.4137 29.8543 16.4266 29.7245C16.4398 29.5929 16.6799 29.2714 16.7945 29.074C17.0633 28.6108 17.3022 28.2771 17.6773 27.9217C17.858 27.7505 18.0386 27.55 18.1924 27.4384C18.4648 27.2408 18.8712 27.0544 19.3143 27.1788Z" fill="white"/>
<path fill-rule="evenodd" clip-rule="evenodd" d="M35.3164 30.1524C35.0827 29.9982 34.7347 29.9595 34.4336 29.8736C34.3821 29.611 34.3504 29.2695 34.36 28.963C34.3701 28.6414 34.3889 28.2433 34.5072 28.0524C34.5791 27.9364 34.9669 27.6663 35.1142 27.6249C35.1609 27.6117 35.2525 27.6085 35.2982 27.6063C35.8644 27.5788 36.6147 27.8351 36.9536 28.1082C37.2324 28.5446 36.8853 28.9478 36.7144 29.2976C36.2387 29.5727 35.7831 29.8682 35.3164 30.1524Z" fill="white"/>
<path fill-rule="evenodd" clip-rule="evenodd" d="M16.8495 28.5913C16.7555 28.7937 16.6067 28.9405 16.5 29.1303C13.9905 30.6149 11.4436 32.391 8.8484 33.9068C8.70123 33.9927 8.43119 34.2035 8.33333 34.2042C8.16096 34.2053 8.02962 33.9906 7.89183 33.9068C7.93138 33.7284 7.79599 33.2789 7.85504 33.052C7.87767 32.9648 8.13686 32.8053 8.27814 32.6988C9.57024 31.7253 10.8794 30.7437 12.159 29.7623C12.441 29.5459 12.749 29.3602 13.0418 29.1303C13.6119 28.6829 14.1272 28.1459 14.8996 27.9595C15.0795 27.916 15.4783 27.9368 15.764 27.9966C16.2688 28.1022 16.7106 28.1604 16.8495 28.5913Z" fill="white"/>
<path fill-rule="evenodd" clip-rule="evenodd" d="M26.7636 29.1115C26.2906 29.7054 25.7207 30.2013 25.1634 30.7099C24.9857 30.6458 24.7782 30.6584 24.6115 30.5798C24.4595 30.508 24.2616 30.2846 24.2436 30.1337C24.2198 29.9346 24.3749 29.59 24.4275 29.3903C24.487 29.1639 24.4976 28.8546 24.6299 28.6654C24.8024 28.4188 25.6926 28.3974 26.0462 28.3494C26.1979 28.3288 26.3661 28.5678 26.4692 28.684C26.5931 28.8234 26.6733 28.952 26.7636 29.1115Z" fill="white"/>
<path fill-rule="evenodd" clip-rule="evenodd" d="M39.4364 31.9179C39.3167 31.6404 39.1895 31.3874 39.0501 31.1188C38.9215 30.871 38.7021 30.5867 38.6638 30.3197C38.6257 30.0536 38.7839 29.7667 38.9397 29.6134C39.1161 29.44 39.4073 29.3288 39.6388 29.1673C39.8772 29.0007 40.1185 28.8619 40.3194 28.7026C40.4487 28.7364 40.6542 28.6584 40.7793 28.6654C41.1023 28.6838 41.3477 29.1193 41.5335 29.3532C41.6203 29.4627 41.7785 29.6125 41.791 29.7063C41.8146 29.8833 41.6279 30.1357 41.5335 30.3011C41.42 30.5 41.3293 30.6547 41.2024 30.8216C41.129 30.9181 41.0009 31.0186 40.908 31.1748C40.7419 31.4541 40.6628 31.5921 40.3562 31.7138C40.117 31.8088 39.7863 31.9467 39.4364 31.9179Z" fill="white"/>
<path fill-rule="evenodd" clip-rule="evenodd" d="M25.6415 31.2118C25.8986 30.7937 26.2112 30.3649 26.5794 29.9852C26.6959 29.8653 26.8101 29.6883 26.9473 29.632C27.0848 29.5755 27.3059 29.5757 27.4992 29.539C28.0327 29.4381 28.6267 29.2838 29.1914 29.1859C29.9887 29.0478 30.7889 28.8974 31.4721 28.7584C31.6726 28.7176 32.0707 28.7526 32.2813 28.7955C32.5725 28.8548 32.7966 29.0004 33.0539 29.1115C33.2209 29.1836 33.3808 29.1954 33.5138 29.2788C33.6812 29.3838 33.7783 29.5825 33.9001 29.7993C34.1063 30.166 34.3118 30.4028 34.1025 30.9144C34.0013 31.1619 33.7597 31.4305 33.569 31.7134C33.438 31.9079 33.2003 32.3499 33.0171 32.4939C32.9325 32.5605 32.7758 32.5984 32.6492 32.6612C32.5111 32.73 32.3852 32.835 32.2445 32.8657C31.7372 32.9765 31.0587 33.0484 30.5339 33.1817C30.3525 33.2278 30.1345 33.2466 30.0004 33.3118C29.8866 33.3674 29.804 33.5274 29.6693 33.6092C29.5244 33.6971 29.2941 33.8187 29.1726 33.8323C29.003 33.8512 28.7236 33.7384 28.492 33.6836C27.9942 33.5655 27.6392 33.4951 27.1309 33.3862C26.9028 33.3373 26.6252 33.312 26.4503 33.2375C26.2895 33.1691 25.9849 32.8527 25.8984 32.6798C25.8225 32.5281 25.7833 32.3319 25.7329 32.1222C25.6451 31.7575 25.5436 31.5826 25.6415 31.2118Z" fill="white"/>
<path fill-rule="evenodd" clip-rule="evenodd" d="M23.5815 28.9442C23.7447 29.1957 23.7859 29.7102 23.7471 30.2266C23.7331 30.4134 23.6748 30.6889 23.5999 30.7657C23.4693 30.8995 23.1928 30.9532 23.0297 31.0259C22.8337 31.1131 22.6636 31.1988 22.4778 31.2861C22.1233 31.1549 21.6574 31.1363 21.4662 30.84C21.5019 30.5322 21.372 30.1554 21.4846 29.855C21.5486 29.6844 21.9695 29.447 22.1285 29.3346C22.3799 29.1567 22.6055 28.9883 22.8091 28.8699C22.9627 28.7805 23.3394 28.9849 23.5815 28.9442Z" fill="white"/>
<path fill-rule="evenodd" clip-rule="evenodd" d="M38.8479 29.3346C38.8424 29.3972 38.7664 29.3885 38.756 29.4461C38.7157 29.41 38.7988 29.3418 38.8479 29.3346Z" fill="white"/>
<path fill-rule="evenodd" clip-rule="evenodd" d="M38.0385 33.8137C37.3745 33.9206 36.765 34.1403 36.1256 34.2784C35.8991 34.3273 35.6679 34.3261 35.4266 34.3713C35.2945 34.396 35.179 34.494 35.0403 34.5014C34.94 34.5068 34.7082 34.4336 34.5252 34.3899C34.3526 34.3486 34.1622 34.312 34.0469 34.2598C33.9623 34.2215 33.872 34.0934 33.7526 34.0181C33.495 33.8557 33.2143 33.7501 33.1271 33.4419C33.0856 33.2945 33.0707 32.965 33.1087 32.8099C33.1509 32.6387 33.5701 32.2157 33.6974 32.0664C34.0984 31.5956 34.3705 31.1606 34.8193 30.7655C34.9853 30.6196 35.2435 30.4865 35.4448 30.3565C35.6556 30.2203 35.891 30.0084 36.0702 29.9476C36.2764 29.8777 36.5158 29.8768 36.7692 29.8361C36.9802 29.8022 37.2882 29.7008 37.4683 29.7245C37.7236 29.7584 38.2869 30.0089 38.4063 30.1892C38.4819 30.3034 38.4931 30.514 38.535 30.6725C38.5786 30.8372 38.6224 30.9937 38.6638 31.1372C38.7484 31.4317 38.9381 31.7744 38.9397 32.0664C38.9416 32.3943 38.6914 32.8443 38.535 33.1072C38.3715 33.3821 38.1693 33.5929 38.0385 33.8137Z" fill="white"/>
<path fill-rule="evenodd" clip-rule="evenodd" d="M19.774 30.1339C19.917 30.1539 20.0595 30.0168 20.1971 30.0409C20.3362 30.0653 20.6806 30.1945 20.7858 30.264C20.9081 30.3448 21.2447 30.8294 21.2457 31.0259C21.2471 31.3759 20.8881 31.4225 20.5282 31.5092C20.3338 31.5558 20.1081 31.6383 19.9764 31.6207C19.7887 31.5954 19.6565 31.3896 19.5349 31.2861C19.3701 31.2296 19.2242 31.1395 19.2222 30.9887C19.219 30.7512 19.6784 30.3047 19.774 30.1339Z" fill="white"/>
<path fill-rule="evenodd" clip-rule="evenodd" d="M17.0151 31.0631C16.9867 31.3257 16.8933 31.5224 16.8679 31.788C16.1704 32.1891 15.503 32.7389 14.7526 33.1447C14.182 33.4533 13.618 33.7334 13.0788 34.0739C12.9035 34.1847 12.7409 34.3287 12.5637 34.4271C12.4052 34.5152 12.1758 34.5589 11.9751 34.6501C11.7935 34.7327 11.6046 34.8853 11.4416 34.9104C11.1817 34.9501 10.8579 34.8092 10.614 34.836C10.3543 34.4604 10.1197 34.0592 10.1541 33.3863C11.3314 32.5967 12.6596 31.7603 13.943 30.9889C14.1299 30.8764 14.3288 30.724 14.4949 30.6729C14.8602 30.5603 15.4103 30.5798 15.8008 30.5242C16.3111 30.4515 16.6643 30.8651 17.0151 31.0631Z" fill="white"/>
<path fill-rule="evenodd" clip-rule="evenodd" d="M24.9426 31.3791C24.9989 31.8798 25.1856 32.2488 25.2001 32.7915C24.8 32.9209 24.3006 33.1456 23.7839 33.2562C23.3764 33.3434 23.0871 33.3789 22.9011 33.0704C23.0806 32.5207 23.3567 32.0688 23.6185 31.6021C23.8449 31.5367 24.1408 31.1733 24.3909 31.1374C24.6106 31.106 24.7461 31.2937 24.9426 31.3791Z" fill="white"/>
<path fill-rule="evenodd" clip-rule="evenodd" d="M22.8273 32.0108C22.6971 32.536 22.496 32.9893 22.3306 33.4791C22.1717 33.6066 22.0415 33.8185 21.8707 34.0181C21.7407 34.1702 21.5426 34.4728 21.3925 34.5386C21.2834 34.5864 20.9495 34.6354 20.8038 34.6501C20.5167 34.6791 20.18 34.6579 19.921 34.5758C19.671 34.1903 19.3397 33.8869 19.3507 33.2376C19.7417 32.511 20.6484 31.9333 21.4293 31.5835C21.4798 31.5608 21.6263 31.5374 21.7604 31.5463C22.1463 31.5722 22.7283 31.6558 22.8273 32.0108Z" fill="white"/>
<path fill-rule="evenodd" clip-rule="evenodd" d="M18.7073 31.5835C18.8894 31.5545 19.2676 31.5514 19.3695 31.6207C19.4681 31.6878 19.5301 31.8943 19.5167 32.0296C19.4972 32.2278 19.164 32.783 19.0384 32.9774C18.9678 33.0867 18.862 33.1839 18.7625 33.2934C18.6624 33.4034 18.5667 33.5484 18.4865 33.6094C18.343 33.7183 18.1298 33.8029 17.9163 33.9254C17.7235 34.0362 17.498 34.1951 17.3644 34.2414C17.1541 34.3142 16.9016 34.331 16.7022 34.3715C16.2835 34.4564 15.8563 34.5384 15.3963 34.6317C15.1367 34.6843 14.8345 34.7711 14.6604 34.7247C14.5238 34.6882 14.3023 34.441 14.2374 34.26C14.1958 34.1442 14.1542 33.9051 14.1822 33.8139C14.2111 33.7196 14.5208 33.5825 14.6972 33.4793C15.6041 32.9488 16.4299 32.3568 17.401 31.9924C17.805 31.841 18.2242 31.6605 18.7073 31.5835Z" fill="white"/>
<path fill-rule="evenodd" clip-rule="evenodd" d="M25.3289 33.0704C25.3265 33.1036 25.3514 33.1096 25.3473 33.1447C25.2182 33.1514 25.1659 33.2795 25.053 33.2005C25.1225 33.1345 25.2322 33.1088 25.3289 33.0704Z" fill="white"/>
<path fill-rule="evenodd" clip-rule="evenodd" d="M33.1827 34.1111C33.0629 35.1548 32.6812 35.9336 32.3735 36.7874C32.0999 36.7593 31.8832 36.89 31.6192 36.8245C31.5205 36.8 31.4176 36.6468 31.3065 36.5643C30.9554 36.3037 30.4587 36.128 30.295 35.6909C30.3225 35.2901 30.1491 34.9399 30.1662 34.5944C30.1785 34.3462 30.391 33.8202 30.5709 33.6838C30.7637 33.5373 31.1036 33.56 31.3803 33.4607C31.5591 33.3966 31.7427 33.2612 31.9322 33.2376C32.6347 33.1501 32.7837 33.8103 33.1827 34.1111Z" fill="white"/>
<path fill-rule="evenodd" clip-rule="evenodd" d="M24.3723 33.6464C25.2445 33.5404 26.4122 33.7235 27.3153 33.7765C27.6462 33.7958 27.9782 33.7789 28.2532 33.8509C28.4383 33.8992 28.8667 34.0979 29.0257 34.2226C29.1491 34.3195 29.2547 34.4912 29.3936 34.6315C29.5233 34.7626 29.6907 34.9159 29.7431 35.0405C29.8507 35.2966 29.9377 35.8197 29.8351 36.1184C29.7676 36.315 29.336 36.5349 29.136 36.6946C28.8892 36.8918 28.6335 37.1078 28.382 37.1965C28.1804 37.2675 27.9205 37.285 27.683 37.3266C26.5853 37.5188 25.3714 37.748 24.2618 37.9586C23.5205 38.0993 22.985 38.2701 22.0913 38.2002C21.8207 38.179 21.4981 38.1827 21.3373 38.1259C21.2092 38.0805 21.0306 37.9084 20.859 37.7727C20.6042 37.5712 20.3252 37.3281 20.3623 36.9178C20.3781 36.7439 20.6675 36.3576 20.8038 36.1372C20.9519 35.8979 21.1594 35.5388 21.2821 35.4122C21.5245 35.1622 21.9364 34.9306 22.2385 34.6873C22.5409 34.4436 22.8751 34.1115 23.1765 33.9624C23.4592 33.8226 24.0044 33.6912 24.3723 33.6464Z" fill="white"/>
<path fill-rule="evenodd" clip-rule="evenodd" d="M20.1971 35.0217C20.2814 35.2342 20.2757 35.5271 20.2523 35.8022C19.7328 36.9314 18.8585 37.7021 18.0084 38.4971C18.0369 38.6526 18.1125 38.8138 18.0636 39.0175C18.0189 39.2038 17.4941 39.6564 17.3462 39.7982C16.9764 40.1529 16.7643 40.4464 16.3898 40.746C16.2993 40.8183 16.2011 40.9098 16.1507 40.9319C15.8361 41.0692 15.4198 41.028 15.0655 41.1178C14.7092 41.2081 14.3819 41.2635 14.0907 41.3222C14.0506 41.8574 13.7122 42.3219 13.4653 42.7347C13.3157 42.9847 13.1706 43.1252 12.987 43.2923C12.7692 43.2682 12.5775 43.4453 12.3616 43.4225C12.2541 43.4111 11.8375 43.1 11.8097 42.9949C11.7282 42.6853 12.1011 42.196 12.2512 41.9728C12.4797 41.6328 12.7043 41.3903 12.8582 41.1363C13.1022 41.104 13.3084 41.0336 13.4653 40.9133C13.4153 40.0748 14.1452 39.6168 14.4953 39.0175C14.8168 38.4675 15.1989 37.9677 15.562 37.4563C15.9286 36.94 16.2471 36.4165 16.6472 35.8951C16.8201 35.6699 17.0544 35.4589 17.2726 35.2074C17.4808 34.9674 17.6602 34.6256 17.8613 34.4825C18.0627 34.3392 18.4814 34.27 18.7441 34.1851C19.0058 34.1005 19.2354 34.4248 19.4431 34.5754C19.5121 34.6254 19.5899 34.6923 19.6638 34.7427C19.8526 34.8711 20.0049 34.8949 20.1971 35.0217Z" fill="white"/>
<path fill-rule="evenodd" clip-rule="evenodd" d="M9.12451 34.3899C9.4744 34.3789 9.75769 34.6514 10.0993 34.836C10.3403 34.9661 10.6324 35.0953 10.7063 35.2635C10.7586 35.3823 10.7963 35.7316 10.7615 35.9327C10.7229 36.1552 10.4363 36.5286 10.2649 36.6762C9.95673 36.9413 9.36439 37.0736 8.90377 37.2338C7.78054 37.6244 6.7962 37.9785 5.61134 38.3675C4.51258 38.7285 3.40444 39.0882 2.28213 39.464C1.9122 39.588 1.55367 39.7607 1.19698 39.8543C0.913139 39.9289 0.248694 40.0451 0.130227 39.9659C0.0255565 39.8958 -0.00773933 39.4541 0.00145841 39.2411C0.00881661 39.0712 0.126364 38.5266 0.222204 38.3861C0.270952 38.3145 0.509726 38.206 0.682091 38.1073C1.76614 37.4859 3.05732 36.9814 4.19526 36.4717C4.86504 36.1717 5.61006 35.8583 6.25537 35.5797C6.59422 35.4332 6.93012 35.2619 7.26694 35.115C7.6159 34.9632 7.97958 34.8659 8.3153 34.7061C8.59196 34.5745 8.72533 34.4025 9.12451 34.3899Z" fill="white"/>
<path fill-rule="evenodd" clip-rule="evenodd" d="M35.298 34.9288C35.2387 34.968 35.1589 34.9866 35.0588 34.9845C35.1048 35.0682 35.2915 34.9256 35.3532 34.9659C35.3421 35.0143 35.3605 35.0329 35.4083 35.0217C35.3951 35.2685 35.323 35.4559 35.298 35.6909C34.7973 36.1204 34.3883 36.6426 33.7713 36.9546C33.2073 37.0602 33.085 36.7117 32.815 36.5085C33.0762 35.7442 33.2474 34.8888 33.8817 34.5012C34.3637 34.6338 34.9115 34.6998 35.298 34.9288Z" fill="white"/>
<path fill-rule="evenodd" clip-rule="evenodd" d="M14.1273 34.9845C13.9049 35.5974 13.9355 36.2427 13.6859 36.7874C13.5475 37.0892 13.2113 37.4604 12.9502 37.7723C12.4876 38.3251 12.1416 38.8407 11.442 39.1105C11.086 38.9932 10.6911 38.9151 10.504 38.6272C10.4889 38.184 10.6464 37.937 10.7983 37.5679C10.9819 37.1219 11.1861 36.6849 11.3686 36.2483C11.5354 35.8487 11.6245 35.4799 11.9204 35.2448C12.088 35.1117 12.3643 35.0146 12.6011 34.9102C12.8369 34.8063 13.1401 34.6297 13.3919 34.6128C13.7482 34.589 13.8279 34.9104 14.1273 34.9845Z" fill="white"/>
<path fill-rule="evenodd" clip-rule="evenodd" d="M14.3481 37.7909C14.2271 37.653 14.1161 37.5048 13.9434 37.4192C13.9789 37.1362 13.9903 36.8892 14.0538 36.6385C14.1143 36.3994 14.2443 36.2953 14.3849 36.0994C14.7418 35.6024 15.0957 35.0362 15.746 34.9286C16.0355 34.8806 16.1165 35.2172 16.3162 35.3375C16.3355 35.5429 16.2918 35.6845 16.2794 35.858C15.8212 36.4604 15.3955 37.0959 14.9368 37.698C14.7396 37.7281 14.5749 37.7909 14.3481 37.7909Z" fill="white"/>
<path fill-rule="evenodd" clip-rule="evenodd" d="M30.9756 37.1591C30.6717 37.7255 30.3522 38.2761 30.0008 38.7947C29.7998 38.8517 29.5821 38.8921 29.3754 38.9434C29.1373 38.7811 28.9204 38.5976 28.7315 38.3857C28.685 37.7889 29.0128 37.4389 29.1546 36.9732C29.5176 36.7762 29.7852 36.4829 30.3869 36.5271C30.6377 36.6825 30.8271 36.9 30.9756 37.1591Z" fill="white"/>
<path fill-rule="evenodd" clip-rule="evenodd" d="M9.38205 37.6238C9.58091 37.5933 9.81251 37.5978 9.91552 37.7167C10.0572 37.8805 9.97144 38.334 9.97071 38.5902C9.96997 38.8621 10.0404 39.2093 9.95231 39.4265C9.87726 39.6112 9.4308 39.7439 9.17988 39.8726C8.63832 40.1503 8.0734 40.4006 7.56127 40.6904C7.31072 40.8322 7.03497 41.072 6.78884 41.1365C6.56865 41.1942 6.28296 41.159 5.97962 41.1737C5.68621 41.1878 5.40329 41.2495 5.2072 41.2109C5.09351 41.1886 4.75062 41.0217 4.72891 40.8763C4.69672 40.6612 4.98553 40.4761 5.1704 40.3373C6.3078 39.4837 7.49909 38.7762 8.66518 37.9584C8.88537 37.8039 9.1201 37.6638 9.38205 37.6238Z" fill="white"/>
<path fill-rule="evenodd" clip-rule="evenodd" d="M13.7964 37.6238C13.969 37.7344 14.0611 37.9262 14.2195 38.0513C14.2072 38.2422 14.3738 38.4448 14.3483 38.6647C14.3234 38.8781 13.8542 39.3744 13.7228 39.5568C13.1706 40.3239 12.7293 41.0044 12.141 41.7313C11.8962 42.0338 11.6555 42.3641 11.2766 42.512C11.0634 42.5951 10.7705 42.5858 10.6144 42.6607C10.5454 42.491 10.4137 42.3551 10.412 42.1589C10.4102 41.9323 10.5868 41.4992 10.6512 41.2482C10.7286 40.9466 10.7766 40.5956 10.9087 40.3562C11.1752 39.8724 11.7792 39.3837 12.1778 38.9809C12.6427 38.5112 13.0726 38.0448 13.4837 37.6614C13.5319 37.5924 13.6923 37.6364 13.7964 37.6238Z" fill="white"/>
<path fill-rule="evenodd" clip-rule="evenodd" d="M20.3627 38.2556C20.1526 38.5406 19.6337 38.7519 19.1856 38.9062C19.048 38.9536 18.7969 39.0805 18.7073 39.0735C18.4922 39.0566 18.3918 38.743 18.2658 38.5902C18.5252 38.1586 19.1747 37.8608 19.6637 37.6424C19.7262 37.6145 19.8666 37.6532 19.958 37.6796C20.1254 37.8389 20.2709 38.0199 20.3627 38.2556Z" fill="white"/>
<path fill-rule="evenodd" clip-rule="evenodd" d="M32.9253 38.1255C32.8977 38.4077 33.1794 38.4606 33.1829 38.6645C33.1851 38.7928 32.8867 39.1448 32.8333 39.185C32.725 39.2664 32.4658 39.3233 32.3183 39.3709C32.1316 39.4311 31.8818 39.5265 31.748 39.501C31.6281 39.4781 31.5779 39.3465 31.4537 39.2408C31.3639 39.1642 31.2493 39.1328 31.1961 39.0549C31.1108 38.9302 31.026 38.5513 31.1042 38.3857C31.1446 38.3004 31.352 38.2011 31.5273 38.0883C31.7379 37.9528 31.9169 37.7188 32.1343 37.698C32.4375 37.669 32.6534 37.9935 32.9253 38.1255Z" fill="white"/>
<path fill-rule="evenodd" clip-rule="evenodd" d="M28.5294 38.6274C28.3496 38.8484 28.0748 38.9735 27.8303 39.1292C27.4942 39.0538 27.2297 38.906 27.0211 38.7017C27.0412 38.4928 27.1059 38.3288 27.1131 38.1069C27.4499 37.9277 28.0632 37.6409 28.4006 37.9954C28.4309 38.1576 28.4999 38.4058 28.5294 38.6274Z" fill="white"/>
<path fill-rule="evenodd" clip-rule="evenodd" d="M24.023 38.9434C24.1597 38.6664 24.3304 38.4238 24.5565 38.237C24.803 38.2132 25.2443 38.0513 25.5865 38.0883C25.8591 38.1179 26.195 38.0747 26.3589 38.1441C26.4727 38.1922 26.6464 38.4097 26.6532 38.5158C26.6657 38.7091 26.4678 38.8417 26.4325 39.0363C26.2239 39.1324 25.9672 39.2554 25.6966 39.3709C25.387 39.5028 25.0745 39.7133 24.7219 39.6497C24.4717 39.6045 24.4754 39.5655 24.3172 39.3895C24.1821 39.2393 24.0699 39.1718 24.023 38.9434Z" fill="white"/>
<path fill-rule="evenodd" clip-rule="evenodd" d="M24.2436 40.3372C23.9321 40.6008 23.4951 40.8003 23.0665 41.0436C22.8801 41.1494 22.6702 41.2579 22.4594 41.3782C22.1813 41.5369 21.9337 41.7929 21.5582 41.7313C21.4186 41.7085 21.2319 41.5464 21.0799 41.4525C20.9311 41.3607 20.7207 41.1953 20.5832 41.1923C20.4328 41.1891 20.0369 41.4339 19.8658 41.4897C19.2069 41.7046 18.6195 41.8858 17.9529 42.1217C17.8213 42.1681 17.6333 42.2425 17.5666 42.2332C17.4295 42.2141 17.1179 41.8265 17.1067 41.6756C17.0971 41.5447 17.2224 41.375 17.2906 41.2109C17.4363 40.8605 17.5524 40.5863 17.6953 40.2817C18.0082 40.046 18.3743 39.8781 18.7069 39.6311C19.0161 39.4015 19.3152 39.1181 19.6817 38.9434C20.1916 38.7002 20.793 38.6026 21.3371 38.3857C21.5157 38.3145 22.1781 38.4718 22.3303 38.5716C22.3807 38.6047 22.4105 38.6722 22.459 38.7017C22.6744 38.8326 22.9815 38.8898 23.2132 38.9991C23.4951 39.132 23.5788 39.3224 23.7835 39.5753C23.9794 39.8175 24.149 39.9874 24.2436 40.3372Z" fill="white"/>
<path fill-rule="evenodd" clip-rule="evenodd" d="M29.6881 40.1885C29.5978 40.3588 29.6748 40.5516 29.6329 40.7276C29.5921 40.8993 29.407 41.017 29.3386 41.1365C28.9869 41.1419 28.6263 41.1572 28.2534 41.1737C28.0985 41.1806 27.9356 41.2321 27.8303 41.2109C27.6219 41.1691 27.5537 40.9375 27.3704 40.8949C27.1983 40.9163 27.0432 41.1122 26.837 41.1551C26.6512 41.1938 26.3813 41.1447 26.1195 41.1179C25.7309 41.0782 25.3856 41.1204 25.1632 40.9692C25.3094 40.7075 25.5546 40.4807 25.7886 40.2443C26.0855 39.9441 26.3423 39.6584 26.6346 39.3709C26.7588 39.2488 26.8717 39.1095 27.0393 39.0735C27.3699 39.1422 27.5917 39.3207 27.7751 39.5382C28.0827 39.5352 28.1833 39.3415 28.4926 39.4824C28.735 39.593 29.0196 39.8579 29.2834 39.9657C29.446 40.032 29.6005 40.0419 29.6881 40.1885Z" fill="white"/>
<path fill-rule="evenodd" clip-rule="evenodd" d="M35.4635 39.129C35.6839 39.3952 35.4343 39.8694 35.4267 40.2441C35.4249 40.3166 35.3002 40.2649 35.298 40.3371C35.2544 40.4562 35.382 40.4681 35.3532 40.5415C35.2882 40.7062 34.7846 40.6562 34.5806 40.7274C34.4334 40.3774 34.3048 39.5941 34.507 39.2406C34.8294 39.2162 35.1442 39.0958 35.4635 39.129Z" fill="white"/>
<path fill-rule="evenodd" clip-rule="evenodd" d="M36.4383 40.6531C36.2268 40.588 35.9976 40.5408 35.7761 40.4858C35.7888 39.9411 35.8874 39.483 36.0704 39.1105C36.2481 39.1248 36.44 39.1915 36.6775 39.2777C36.8469 39.3393 37.1342 39.3882 37.1741 39.5194C37.2006 39.6066 37.0805 39.7014 37.027 39.7982C36.9604 39.9185 36.9374 40.0517 36.8798 40.1328C36.735 40.3363 36.5551 40.4742 36.4383 40.6531Z" fill="white"/>
<path fill-rule="evenodd" clip-rule="evenodd" d="M34.1576 40.5973C33.8878 40.777 33.4704 40.7611 32.9989 40.7832C32.2281 40.8194 31.3871 40.9646 30.6263 41.0062C30.5689 40.9341 30.5181 40.8553 30.4423 40.8018C30.5922 40.6337 30.6678 40.135 30.9206 39.9839C31.0896 39.883 31.4279 39.8534 31.693 39.798C32.0506 39.7235 32.3656 39.625 32.6494 39.5192C32.7995 39.4633 32.9583 39.4534 33.0541 39.3891C33.1538 39.3222 33.1922 39.1776 33.3484 39.1474C33.5752 39.1036 33.9465 39.2887 33.9923 39.3891C34.0635 39.545 33.8964 39.6908 33.9003 39.8352C33.9065 40.0711 34.2446 40.2356 34.1576 40.5973Z" fill="white"/>
<path fill-rule="evenodd" clip-rule="evenodd" d="M38.1857 40.1886C37.9742 40.3465 37.7087 40.4499 37.5603 40.6718C37.4552 40.6356 37.2893 40.6605 37.1556 40.6532C37.0606 40.3499 37.1616 40.0092 37.3027 39.7984C37.382 39.6798 37.6747 39.3993 37.873 39.3895C37.9975 39.3833 38.4138 39.6333 38.4248 39.7612C38.4355 39.8854 38.217 40.0558 38.1857 40.1886Z" fill="white"/>
<path fill-rule="evenodd" clip-rule="evenodd" d="M39.418 40.3744C39.3501 40.851 38.9162 40.9577 38.4248 41.0064C38.3656 40.8867 38.3273 40.7456 38.1857 40.709C38.3397 40.5666 38.5214 40.2293 38.7376 40.1328C39.0218 40.006 39.2271 40.2164 39.418 40.3744Z" fill="white"/>
</svg>
