<svg width="167" height="64" viewBox="0 0 167 64" fill="none" xmlns="http://www.w3.org/2000/svg">
<path fill-rule="evenodd" clip-rule="evenodd" d="M37.5852 19.6624V44.3569C44.0952 44.3569 49.5904 38.6253 49.5904 31.9416C49.5904 25.258 44.2484 19.6818 37.5852 19.6818" fill="white"/>
<path fill-rule="evenodd" clip-rule="evenodd" d="M18.9937 31.9222C18.9937 38.6253 24.4889 44.3375 30.9989 44.3375V19.6624C24.3548 19.6624 18.9937 25.1414 18.9937 31.9222Z" fill="white"/>
<path fill-rule="evenodd" clip-rule="evenodd" d="M86.2958 49.9526H78.4072L67.3211 34.1178V49.9526H60.7153V13.8336H67.3211V29.4742L78.4072 13.8336H86.2958L72.8546 31.5725L86.2958 49.9526ZM37.5857 50.8464H30.98C20.8703 50.8464 12.3882 42.5307 12.3882 32.0777C12.3882 21.6248 20.7171 13.1536 30.98 13.1536H37.5857C47.8485 13.1536 56.1775 21.5665 56.1775 32.0777C56.1775 42.5889 47.6953 50.8464 37.5857 50.8464ZM95.563 0H3.14012C1.41688 0 0 1.41835 0 3.16698V60.833C0 62.5622 1.41688 64 3.14012 64H95.563C97.2862 64 98.684 62.5817 98.684 60.833V3.16698C98.684 1.41835 97.2862 0 95.563 0Z" fill="white"/>
<path d="M115.131 28.5221C113.848 28.5221 112.661 28.1918 111.569 27.5506C110.478 26.9094 109.597 26.0351 108.946 24.9276C108.295 23.8202 107.97 22.6156 107.97 21.3138C107.97 20.012 108.295 18.7686 108.927 17.6611C109.559 16.5536 110.44 15.6793 111.531 15.0187C112.622 14.3776 113.829 14.0473 115.112 14.0473H117.639C118.922 14.0473 120.109 14.3776 121.219 15.0187C122.311 15.6599 123.192 16.5536 123.823 17.6611C124.455 18.7686 124.781 19.9926 124.781 21.3138C124.781 22.635 124.455 23.8396 123.823 24.9276C123.172 26.0351 122.311 26.9094 121.219 27.5506C120.128 28.1918 118.941 28.5221 117.658 28.5221H115.131ZM117.658 16.5342V26.0157C118.481 26.0157 119.228 25.802 119.937 25.3551C120.645 24.9082 121.2 24.3253 121.622 23.6065C122.043 22.8681 122.253 22.091 122.253 21.2555C122.253 20.4201 122.043 19.604 121.641 18.8851C121.239 18.1663 120.664 17.5834 119.956 17.1754C119.247 16.7479 118.481 16.5342 117.658 16.5342ZM115.131 16.5342C114.307 16.5342 113.522 16.7479 112.814 17.1754C112.105 17.6028 111.55 18.1663 111.129 18.8851C110.727 19.604 110.516 20.4006 110.516 21.2555C110.516 21.8773 110.631 22.499 110.88 23.0624C111.129 23.6453 111.454 24.1505 111.876 24.5974C112.297 25.0442 112.795 25.394 113.35 25.6465C113.905 25.8991 114.499 26.0351 115.112 26.0351V16.5536L115.131 16.5342ZM140.864 21.2944C140.864 22.5961 140.539 23.8202 139.907 24.9082C139.275 26.0157 138.394 26.89 137.303 27.5312C136.212 28.1723 135.025 28.5026 133.761 28.5026C132.497 28.5026 131.31 28.1723 130.219 27.5312C129.127 26.89 128.246 26.0157 127.615 24.9082C126.964 23.8007 126.657 22.5961 126.657 21.2944C126.657 19.9926 126.983 18.7686 127.615 17.6417C128.246 16.5148 129.127 15.6405 130.199 14.9993C131.291 14.3581 132.478 14.0278 133.761 14.0278C135.044 14.0278 136.231 14.3581 137.322 14.9993C138.414 15.6405 139.275 16.5342 139.926 17.6417C140.558 18.7491 140.884 19.9732 140.884 21.2944M129.166 21.2555C129.166 22.091 129.376 22.8876 129.797 23.6065C130.219 24.3448 130.774 24.9277 131.482 25.3551C132.191 25.7825 132.937 26.0157 133.761 26.0157C134.584 26.0157 135.331 25.802 136.039 25.3551C136.748 24.9082 137.303 24.3253 137.724 23.6065C138.145 22.8681 138.356 22.091 138.356 21.2555C138.356 20.4201 138.145 19.604 137.743 18.8851C137.341 18.1468 136.767 17.5834 136.078 17.1559C135.369 16.7285 134.603 16.5148 133.78 16.5148C132.957 16.5148 132.172 16.7285 131.482 17.1559C130.774 17.5834 130.219 18.1468 129.817 18.8851C129.414 19.604 129.204 20.4006 129.204 21.2555M143.296 14.2998H145.823V19.8566H150.821V14.2998H153.348V28.1723H150.821V22.3436H145.823V28.1723H143.296V14.2998ZM155.971 25.6854L159.226 14.2998H166.081V25.6854H167V28.1918H155.129V25.6854H155.971ZM163.554 25.6854V16.8062H161.103L158.633 25.6854H163.554ZM111.359 36.1383H113.886V42.142L118.137 36.1383H121.181L116.011 42.958L121.181 50.0108H118.137L113.886 43.9295V50.0108H111.359V36.1383ZM134.144 36.1383V50.0108H131.616V39.9076L125.776 50.0108H122.981V36.1383H125.508V46.2804L131.31 36.1383H134.163H134.144ZM137.188 36.1383H139.716V41.6951H144.713V36.1383H147.24V50.0108H144.713V44.1821H139.716V50.0108H137.188V36.1383ZM163.917 43.1329C163.917 44.4346 163.592 45.6392 162.96 46.7467C162.309 47.8542 161.447 48.7285 160.356 49.3697C159.265 50.0108 158.078 50.3217 156.814 50.3217C155.55 50.3217 154.363 49.9914 153.272 49.3697C152.18 48.7285 151.3 47.8542 150.668 46.7467C150.017 45.6392 149.691 44.4346 149.691 43.1329C149.691 41.8311 150.017 40.6071 150.649 39.4802C151.28 38.3533 152.161 37.479 153.233 36.8378C154.325 36.1966 155.512 35.8663 156.814 35.8663C158.116 35.8663 159.284 36.1966 160.375 36.8378C161.467 37.479 162.328 38.3727 162.979 39.4802C163.611 40.5876 163.937 41.8117 163.937 43.1329M152.199 43.094C152.199 43.9295 152.41 44.7261 152.831 45.445C153.253 46.1833 153.808 46.7661 154.516 47.1936C155.225 47.621 155.971 47.8347 156.795 47.8347C157.618 47.8347 158.365 47.621 159.073 47.1742C159.782 46.7467 160.337 46.1638 160.758 45.4255C161.179 44.6872 161.39 43.91 161.39 43.0746C161.39 42.2391 161.179 41.4231 160.777 40.7042C160.375 39.9853 159.801 39.4025 159.112 38.975C158.403 38.567 157.637 38.3533 156.814 38.3533C155.991 38.3533 155.206 38.567 154.516 38.975C153.808 39.4025 153.253 39.9659 152.85 40.7042C152.448 41.4231 152.238 42.2197 152.238 43.0746" fill="white"/>
</svg>
